<svg width="97" height="22" viewBox="0 0 97 22" fill="none" xmlns="http://www.w3.org/2000/svg">
<path d="M0 10.9971C0 5.68715 3.48595 0.406225 10.4869 0.406225C12.5204 0.406225 14.4667 1.21868 16.2387 2.23424C16.4421 2.3503 16.4421 2.58243 16.3259 2.75653L14.7572 4.99077C14.6119 5.19388 14.4376 5.22289 14.2343 5.07781C13.3628 4.43946 12.0556 3.85914 10.516 3.85914C1.36533 3.85914 1.36533 18.135 10.516 18.135C12.4042 18.135 13.5662 17.5547 14.2633 16.9744C14.4376 16.8293 14.641 16.8583 14.7572 17.0324L16.3549 19.2377C16.4711 19.4118 16.4421 19.6439 16.2678 19.76C14.6991 20.9786 13.0142 21.588 10.4869 21.588C3.48595 21.588 0 16.278 0 10.9971Z" fill="#AFF697"/>
<path d="M20.6917 1.21868C20.6917 0.986546 20.837 0.841466 21.0694 0.841466H23.8C24.0324 0.841466 24.1777 0.986546 24.1777 1.21868V8.55974C24.1777 9.05302 24.4972 9.37219 24.991 9.37219H33.0668C33.5607 9.37219 33.8802 9.05302 33.8802 8.55974V1.21868C33.8802 0.986546 34.0545 0.841466 34.2579 0.841466H36.9885C37.2209 0.841466 37.3662 0.986546 37.3662 1.21868V20.7755C37.3662 21.0076 37.2209 21.1527 36.9885 21.1527H34.2579C34.0545 21.1527 33.8802 21.0076 33.8802 20.7755V13.4344C33.8802 12.9412 33.5607 12.622 33.0668 12.622H21.0694C20.837 12.622 20.6917 12.4769 20.6917 12.2448V1.21868ZM20.6917 16.0749C20.6917 15.8428 20.837 15.6977 21.0694 15.6977H23.8C24.0324 15.6977 24.1777 15.8428 24.1777 16.0749V20.7755C24.1777 21.0076 24.0324 21.1527 23.8 21.1527H21.0694C20.837 21.1527 20.6917 21.0076 20.6917 20.7755V16.0749Z" fill="#AFF697"/>
<path d="M41.3049 10.9971C41.3049 3.91717 46.5338 0.377209 51.7918 0.377209C57.0207 0.377209 62.2496 3.91717 62.2496 10.9971C62.2496 18.077 57.0207 21.617 51.7918 21.617C46.5338 21.617 41.3049 18.077 41.3049 10.9971ZM44.7327 10.9971C44.7327 15.7557 48.2477 18.106 51.7918 18.106C55.3068 18.106 58.8508 15.7557 58.8508 10.9971C58.8508 6.23846 55.3068 3.88815 51.7918 3.88815C48.2477 3.88815 44.7327 6.23846 44.7327 10.9971ZM49.4097 11.2582C49.2354 11.0841 49.2354 10.91 49.4097 10.7359L51.5303 8.61778C51.6756 8.4727 51.8789 8.44368 52.0532 8.61778L54.1739 10.7359C54.3191 10.881 54.3191 11.1132 54.1739 11.2582L52.0532 13.3764C51.8789 13.5505 51.6756 13.5215 51.5303 13.3764L49.4097 11.2582Z" fill="#AFF697"/>
<path d="M64.9388 18.7444C64.7935 18.5703 64.8226 18.3672 64.9969 18.2221L67.1175 16.5682C67.2918 16.4521 67.4951 16.4521 67.6404 16.6262C68.9186 18.106 70.8649 18.5703 72.7531 18.5703C74.2927 18.5703 76.5877 17.99 76.5877 16.0749C76.5877 12.1577 65.2874 12.593 65.2874 5.7742C65.2874 5.57109 65.4617 5.39699 65.6941 5.39699H68.3376C68.57 5.39699 68.7152 5.54207 68.7443 5.7742C69.2672 9.95252 80.0155 9.28515 80.0155 16.191C80.0155 20.1372 76.1229 21.9942 72.6369 21.9942C69.761 21.9942 66.7979 21.0076 64.9388 18.7444ZM68.5119 1.21868C68.3957 1.04458 68.4538 0.81245 68.6571 0.725401C69.732 0.261145 70.9811 0 72.2593 0C74.7575 0 77.1977 1.13163 79.115 2.72751C79.2893 2.87259 79.2893 3.10472 79.144 3.2498L77.372 5.25191C77.1977 5.42601 76.9944 5.42601 76.8491 5.28093C75.5419 4.12028 73.9151 3.4239 72.1431 3.4239C71.5621 3.4239 70.8939 3.48193 70.313 3.68504C70.0806 3.77209 69.9063 3.71406 69.7901 3.51095L68.5119 1.21868Z" fill="#AFF697"/>
<path d="M83.8405 20.7755V1.21868C83.8405 0.986546 83.9858 0.841466 84.2182 0.841466H96.6224C96.8548 0.841466 97 0.986546 97 1.21868V3.71406C97 3.94619 96.8548 4.09127 96.6224 4.09127H88.1399C87.646 4.09127 87.3265 4.41044 87.3265 4.90372V8.55974C87.3265 9.05302 87.646 9.37219 88.1399 9.37219H94.5308C94.7632 9.37219 94.9084 9.51727 94.9084 9.7494V12.2448C94.9084 12.4769 94.7632 12.622 94.5308 12.622H88.1399C87.646 12.622 87.3265 12.9412 87.3265 13.4344V17.0905C87.3265 17.5837 87.646 17.9029 88.1399 17.9029H96.6224C96.8548 17.9029 97 18.048 97 18.2801V20.7755C97 21.0076 96.8548 21.1527 96.6224 21.1527H84.2182C83.9858 21.1527 83.8405 21.0076 83.8405 20.7755Z" fill="#AFF697"/>
</svg>
