<svg width="19" height="20" viewBox="0 0 19 20" fill="none" xmlns="http://www.w3.org/2000/svg">
<path d="M16.5675 9.69337C16.5766 14.1103 13.3304 17.6992 9.31664 17.7092C5.30444 17.719 2.04332 14.1461 2.03463 9.72937C2.0249 5.31213 5.27105 1.72289 9.2837 1.71297C13.2972 1.70283 16.5582 5.27625 16.5675 9.69337Z" fill="#F7931A"/>
<path d="M7.281 11.6599C7.26663 11.7753 7.20543 11.9593 6.97281 11.9603C6.98337 11.9706 6.37534 11.9616 6.37534 11.9616L6.21427 13.0424L7.28389 13.0397C7.48294 13.0394 7.67881 13.0426 7.87109 13.0435L7.87453 14.5465L8.69558 14.5446L8.69248 13.0575C8.91794 13.062 9.1361 13.0635 9.34909 13.0627L9.35178 14.543L10.1737 14.5409L10.1709 13.0405C11.5526 12.9498 12.5189 12.5642 12.6361 11.1358C12.7307 9.9856 12.2381 9.47368 11.4532 9.26835C11.9292 9.0001 12.2262 8.52881 12.1549 7.74501C12.0591 6.67385 11.218 6.31678 10.1568 6.21713L10.1537 4.731L9.33174 4.73315L9.33479 6.1801C9.11872 6.18067 8.89785 6.18592 8.67843 6.19128L8.67553 4.73474L7.85404 4.73677L7.8568 6.22246C7.67885 6.22691 7.50412 6.23096 7.3337 6.23153L7.33358 6.22691L6.19992 6.22932L6.20212 7.19546C6.20212 7.19546 6.80907 7.18121 6.79901 7.19353C7.13194 7.19281 7.24073 7.40524 7.27264 7.58874L7.281 11.6599ZM11.0116 10.9617C11.0144 12.0849 9.26657 11.9616 8.70952 11.9635L8.70563 9.97212C9.26282 9.97086 11.0092 9.79017 11.0116 10.9617ZM10.6235 8.15306C10.6254 9.17497 9.1677 9.05937 8.70371 9.06057L8.70002 7.25441C9.16401 7.25322 10.6212 7.08717 10.6235 8.15306Z" fill="white"/>
</svg>
