<svg width="18" height="18" viewBox="0 0 18 18" fill="none" xmlns="http://www.w3.org/2000/svg">
<g clip-path="url(#clip0_9_497)">
<path fill-rule="evenodd" clip-rule="evenodd" d="M12.7278 14.7417H5.30422C4.81916 14.7417 4.41846 14.341 4.41846 13.8559V3.78561C4.41846 3.30054 4.81916 2.89984 5.30422 2.89984H12.7278C13.2128 2.89984 13.6135 3.30054 13.6135 3.78561V13.8559C13.6135 14.341 13.2128 14.7417 12.7278 14.7417ZM9.016 10.6714C8.96327 10.6714 8.91055 10.6503 8.86837 10.6081C8.54148 10.2812 8.20405 10.0387 7.91934 9.81724C7.30774 9.36381 6.7805 8.96311 6.7805 8.19334C6.7805 7.51847 7.32883 6.97014 8.00369 6.97014C8.4993 6.97014 8.78401 7.17049 9.016 7.50793C9.24798 7.17049 9.54324 6.97014 10.0283 6.97014C10.7032 6.97014 11.2515 7.51847 11.2515 8.19334C11.2515 8.96311 10.7243 9.36381 10.1127 9.81724C9.82795 10.0387 9.49051 10.2812 9.16362 10.6081C9.12144 10.6503 9.06872 10.6714 9.016 10.6714ZM6.20053 5.56768C6.13726 5.56768 6.08454 5.54659 6.0529 5.50441C5.90528 5.36733 5.76819 5.26188 5.63111 5.15643C5.35695 4.94554 5.08278 4.74518 5.08278 4.34448C5.08278 3.97541 5.37804 3.68016 5.7471 3.68016C5.94746 3.68016 6.09508 3.75397 6.20053 3.85942C6.30598 3.75397 6.44306 3.68016 6.65396 3.68016C7.01248 3.68016 7.30774 3.97541 7.30774 4.34448C7.30774 4.74518 7.04412 4.94554 6.75941 5.15643C6.63287 5.25134 6.48524 5.36733 6.34816 5.50441C6.30598 5.54659 6.25325 5.56768 6.20053 5.56768ZM11.7049 14.1195C11.6522 14.1195 11.5995 14.0984 11.5573 14.0563C11.4202 13.9192 11.2726 13.8137 11.146 13.7188C10.8613 13.5079 10.5977 13.297 10.5977 12.8963C10.5977 12.5273 10.893 12.232 11.262 12.232C11.4624 12.232 11.61 12.3058 11.7049 12.4113C11.8104 12.3058 11.958 12.232 12.1584 12.232C12.5274 12.232 12.8227 12.5273 12.8227 12.8963C12.8227 13.297 12.5591 13.5079 12.2743 13.7188C12.1478 13.8137 12.0002 13.9192 11.8631 14.0563C11.8209 14.0984 11.7682 14.1195 11.7049 14.1195Z" fill="#8B8B8B"/>
<path fill-rule="evenodd" clip-rule="evenodd" d="M3.99648 12.8542H0.885764C0.400703 12.8542 0 12.4535 0 11.9684V1.89809C0 1.41303 0.400703 1.01233 0.885764 1.01233H8.30931C8.79438 1.01233 9.19508 1.41303 9.19508 1.89809V2.47806H5.30404C4.58699 2.47806 3.99648 3.06857 3.99648 3.78562V5.13535C3.88049 5.10372 3.74341 5.07208 3.58524 5.07208C2.91037 5.07208 2.36204 5.62041 2.36204 6.29528C2.36204 7.0756 2.88928 7.4763 3.49033 7.92973C3.65905 8.04572 3.82777 8.17226 3.99648 8.31989V12.8542ZM1.78207 3.68017C1.7188 3.68017 1.66608 3.65908 1.6239 3.6169C1.48682 3.47982 1.33919 3.36382 1.21265 3.26892C0.927944 3.05802 0.664323 2.85767 0.664323 2.44642C0.664323 2.0879 0.959578 1.79265 1.32865 1.79265C1.529 1.79265 1.67663 1.86646 1.77153 1.96136C1.87698 1.86646 2.0246 1.79265 2.22496 1.79265C2.59402 1.79265 2.88928 2.0879 2.88928 2.44642C2.88928 2.85767 2.62566 3.05802 2.34095 3.26892C2.21441 3.36382 2.06678 3.47982 1.9297 3.6169C1.88752 3.65908 1.8348 3.68017 1.78207 3.68017Z" fill="#8B8B8B"/>
<path fill-rule="evenodd" clip-rule="evenodd" d="M17.114 16.9877H9.69045C9.20539 16.9877 8.80469 16.587 8.80469 16.1019V15.1634H12.7274C13.4444 15.1634 14.0349 14.5729 14.0349 13.8559V12.4218C14.1931 12.2953 14.3513 12.1687 14.4989 12.0633C15.1105 11.6098 15.6377 11.2091 15.6377 10.4288C15.6377 9.7645 15.0894 9.21617 14.4145 9.21617C14.2669 9.21617 14.1404 9.22672 14.0349 9.25835V5.14587H17.114C17.5991 5.14587 17.9998 5.54658 17.9998 6.03164V16.1019C17.9998 16.587 17.5991 16.9877 17.114 16.9877ZM16.0912 16.3656C16.0384 16.3656 15.9857 16.3445 15.9435 16.3023C15.8064 16.1652 15.6588 16.0598 15.5323 15.9649C15.2476 15.7434 14.9839 15.5431 14.9839 15.1424C14.9839 14.7733 15.2792 14.478 15.6377 14.478C15.8486 14.478 15.9857 14.5519 16.0912 14.6573C16.1966 14.5519 16.3442 14.478 16.5446 14.478C16.9137 14.478 17.2089 14.7733 17.2089 15.1424C17.2089 15.5431 16.9347 15.7434 16.6606 15.9649C16.5235 16.0598 16.3864 16.1652 16.2388 16.3023C16.2071 16.3445 16.1544 16.3656 16.0912 16.3656Z" fill="#8B8B8B"/>
</g>
<defs>
<clipPath id="clip0_9_497">
<rect width="18" height="18" fill="white"/>
</clipPath>
</defs>
</svg>
