<svg width="18" height="18" viewBox="0 0 18 18" fill="none" xmlns="http://www.w3.org/2000/svg">
<path d="M17.4727 8.47266C17.768 8.47266 18 8.24059 18 7.94531V4.78125C18 4.4859 17.768 4.25391 17.4727 4.25391C17.1773 4.25391 16.9453 4.02184 16.9453 3.72656C16.9453 3.43121 16.7133 3.19922 16.418 3.19922H14.8008L14.2734 4.25391L13.7461 3.19922H4.25391L3.72656 4.25391L3.19922 3.19922H1.58203C1.28668 3.19922 1.05469 3.43121 1.05469 3.72656C1.05469 4.02184 0.822691 4.25391 0.527344 4.25391C0.231996 4.25391 0 4.4859 0 4.78125V7.94531C0 8.24059 0.231996 8.47266 0.527344 8.47266C0.822691 8.47266 1.05469 8.70465 1.05469 9C1.05469 9.29528 0.822691 9.52734 0.527344 9.52734C0.231996 9.52734 0 9.75934 0 10.0547V13.2188C0 13.514 0.231996 13.7461 0.527344 13.7461C0.822691 13.7461 1.05469 13.9781 1.05469 14.2734C1.05469 14.5687 1.28668 14.8008 1.58203 14.8008H3.19922L3.72656 13.7461L4.25391 14.8008H13.7461L14.2734 13.7461L14.8008 14.8008H16.418C16.7133 14.8008 16.9453 14.5687 16.9453 14.2734C16.9453 13.9781 17.1773 13.7461 17.4727 13.7461C17.768 13.7461 18 13.514 18 13.2188V10.0547C18 9.75934 17.768 9.52734 17.4727 9.52734C17.1773 9.52734 16.9453 9.29528 16.9453 9C16.9453 8.70465 17.1773 8.47266 17.4727 8.47266Z" fill="#8B8B8B"/>
<path d="M13.7461 3.19922V4.78125C13.7461 5.07653 13.9781 5.30859 14.2734 5.30859C14.5688 5.30859 14.8008 5.07653 14.8008 4.78125V3.19922H13.7461ZM14.2734 6.36328C13.982 6.36328 13.7461 6.59914 13.7461 6.89062V7.94531C13.7461 8.23679 13.982 8.47266 14.2734 8.47266C14.5649 8.47266 14.8008 8.23679 14.8008 7.94531V6.89062C14.8008 6.59914 14.5649 6.36328 14.2734 6.36328ZM14.2734 9.52734C13.982 9.52734 13.7461 9.76321 13.7461 10.0547V11.1094C13.7461 11.4009 13.982 11.6367 14.2734 11.6367C14.5649 11.6367 14.8008 11.4009 14.8008 11.1094V10.0547C14.8008 9.76321 14.5649 9.52734 14.2734 9.52734ZM14.2734 12.6914C13.9781 12.6914 13.7461 12.9234 13.7461 13.2188V14.8008H14.8008V13.2188C14.8008 12.9234 14.5688 12.6914 14.2734 12.6914ZM3.19922 4.78125C3.19922 5.07653 3.43121 5.30859 3.72656 5.30859C4.02191 5.30859 4.25391 5.07653 4.25391 4.78125V3.19922H3.19922V4.78125ZM3.72656 6.36328C3.43508 6.36328 3.19922 6.59914 3.19922 6.89062V7.94531C3.19922 8.23679 3.43508 8.47266 3.72656 8.47266C4.01804 8.47266 4.25391 8.23679 4.25391 7.94531V6.89062C4.25391 6.59914 4.01804 6.36328 3.72656 6.36328ZM3.72656 9.52734C3.43508 9.52734 3.19922 9.76321 3.19922 10.0547V11.1094C3.19922 11.4009 3.43508 11.6367 3.72656 11.6367C4.01804 11.6367 4.25391 11.4009 4.25391 11.1094V10.0547C4.25391 9.76321 4.01804 9.52734 3.72656 9.52734ZM3.72656 12.6914C3.43121 12.6914 3.19922 12.9234 3.19922 13.2188V14.8008H4.25391V13.2188C4.25391 12.9234 4.02191 12.6914 3.72656 12.6914ZM9.28325 5.391C9.11022 5.28078 8.88982 5.28078 8.71678 5.391C7.0894 6.42558 6.36328 7.33043 6.36328 8.32486C6.36328 9.2951 7.0585 10.0547 7.94531 10.0547C8.14222 10.0547 8.31512 10.0142 8.47266 9.95382V10.582H7.94531C7.65383 10.582 7.41797 10.8179 7.41797 11.1094C7.41797 11.4009 7.65383 11.6367 7.94531 11.6367H10.0547C10.3462 11.6367 10.582 11.4009 10.582 11.1094C10.582 10.8179 10.3462 10.582 10.0547 10.582H9.52734V9.95382C9.68488 10.0142 9.85778 10.0547 10.0547 10.0547C10.9415 10.0547 11.6367 9.2951 11.6367 8.32486C11.6367 7.33043 10.9106 6.42558 9.28325 5.391Z" fill="#2C372D"/>
</svg>
