<svg width="24" height="25" viewBox="0 0 24 25" fill="none" xmlns="http://www.w3.org/2000/svg">
<path opacity="0.4" fill-rule="evenodd" clip-rule="evenodd" d="M16.8198 2.5H7.17983C5.04983 2.5 3.31983 4.23969 3.31983 6.35932V20.4468C3.31983 22.2465 4.60983 23.0064 6.18983 22.1365L11.0698 19.427C11.5898 19.1371 12.4298 19.1371 12.9398 19.427L17.8198 22.1365C19.3998 23.0164 20.6898 22.2565 20.6898 20.4468V6.35932C20.6798 4.23969 18.9498 2.5 16.8198 2.5Z" fill="#AFF697"/>
<path fill-rule="evenodd" clip-rule="evenodd" d="M11.9998 10.7801C10.9784 10.7801 9.95705 10.5996 8.98577 10.2488C8.59525 10.1085 8.39498 9.67748 8.53517 9.28657C8.68537 8.89565 9.11594 8.69519 9.50646 8.83551C11.1186 9.41687 12.8909 9.41687 14.5031 8.83551C14.8936 8.69519 15.3242 8.89565 15.4644 9.28657C15.6045 9.67748 15.4043 10.1085 15.0138 10.2488C14.0425 10.5996 13.0211 10.7801 11.9998 10.7801Z" fill="#AFF697"/>
</svg>
