<svg width="18" height="18" viewBox="0 0 18 18" fill="none" xmlns="http://www.w3.org/2000/svg">
<g clip-path="url(#clip0_10_821)">
<path d="M6.68769 2.84035C5.8893 2.76941 5.11857 3.0496 4.55603 3.61214L1.69902 6.46914C1.4903 6.67787 1.4903 7.01604 1.69902 7.22476L2.83225 8.35837L8.21154 2.9795L6.68769 2.84035Z" fill="#8B8B8B"/>
<path d="M10.3819 2.35406C9.88423 2.80199 7.78312 4.91945 7.2658 5.43678C7.42794 5.51338 7.58604 5.60412 7.72002 5.7381C8.34516 6.36325 8.34516 7.37976 7.72002 8.00494L5.09961 10.6258L5.85529 11.3815L8.47619 8.76055C8.68491 8.55183 9.02308 8.55183 9.2318 8.76055C9.44053 8.96928 9.44053 9.30744 9.2318 9.51617L6.61091 12.1371L7.36659 12.8927L9.98742 10.2723C10.6126 9.64719 11.6291 9.64719 12.2543 10.2723C12.3882 10.4063 12.479 10.5644 12.5556 10.7266C13.0729 10.2092 15.1904 8.10809 15.6383 7.61049L10.3819 2.35406ZM12.2542 8.00494C11.629 8.63009 10.6125 8.63009 9.98735 8.00494C9.3622 7.37979 9.3622 6.36328 9.98735 5.7381C10.6125 5.11295 11.629 5.11295 12.2542 5.7381C12.8793 6.36328 12.8793 7.37979 12.2542 8.00494Z" fill="#8B8B8B"/>
<path d="M15.1659 11.3186L15.0246 9.76868L9.63379 15.1599L10.782 16.3077C10.9908 16.5165 11.3288 16.5165 11.5376 16.3077L14.3946 13.4507C14.9571 12.8882 15.2384 12.1107 15.1659 11.3186Z" fill="#8B8B8B"/>
<path d="M1.36308 2.56279C1.20133 2.5456 1.03592 2.59879 0.918991 2.7152L0.163378 3.47081C-0.0453447 3.67953 -0.0453447 4.0177 0.163378 4.22642L1.29692 5.36021L3.79087 2.86626L1.36308 2.56279Z" fill="#8B8B8B"/>
<path d="M17.4384 0H16.4454C14.5457 0 12.7396 0.605953 11.2197 1.68079L16.3113 6.77243C17.3862 5.25234 17.993 3.44598 17.993 1.54628V0.553781C17.993 0.258398 17.7338 0 17.4384 0Z" fill="#8B8B8B"/>
<path d="M11.4987 6.4937C11.2905 6.28547 10.9512 6.28547 10.7431 6.4937C10.5349 6.70193 10.5349 7.04108 10.7431 7.24931C10.9518 7.45803 11.29 7.45803 11.4987 7.24931C11.7069 7.04108 11.7069 6.70193 11.4987 6.4937Z" fill="#8B8B8B"/>
<path d="M15.4439 16.6438L15.1404 14.2159L12.6465 16.7099L13.7803 17.8434C13.9891 18.0522 14.3272 18.0522 14.5359 17.8434L15.2915 17.0878C15.4084 16.9715 15.4642 16.8076 15.4439 16.6438Z" fill="#8B8B8B"/>
<path d="M11.4984 11.0278C11.2897 10.8191 10.9515 10.8191 10.7428 11.0278L8.09766 13.6724L8.8538 14.4286L11.4984 11.7834C11.7067 11.5752 11.7067 11.236 11.4984 11.0278Z" fill="#8B8B8B"/>
<path d="M6.96425 6.4937C6.75552 6.28498 6.41736 6.28498 6.20863 6.4937L3.56348 9.13829L4.31962 9.89443L6.96421 7.24928C7.17248 7.04108 7.17248 6.70193 6.96425 6.4937Z" fill="#8B8B8B"/>
<path d="M6.66719 13.7532C6.50132 13.8275 6.34104 13.9182 6.20872 14.0503C5.75263 14.5064 4.84884 16.6104 4.58267 17.2444C4.49868 17.4442 4.54407 17.6754 4.69749 17.8288C4.85176 17.983 5.08343 18.0274 5.28193 17.9436C5.91593 17.6775 8.01944 16.7742 8.47549 16.3176C8.60679 16.1863 8.7071 16.0337 8.78479 15.8708L6.66719 13.7532Z" fill="#8B8B8B"/>
<path d="M2.13297 9.21899C1.96704 9.29335 1.80676 9.38402 1.67454 9.51617C1.21845 9.97225 0.314658 12.0762 0.0484897 12.7103C-0.0354986 12.9101 0.00988811 13.1413 0.16331 13.2947C0.317576 13.4489 0.549255 13.4933 0.747747 13.4095C1.38176 13.1434 3.48526 12.2401 3.94131 11.7835C4.07261 11.6522 4.17292 11.4995 4.25061 11.3367L2.13297 9.21899Z" fill="#8B8B8B"/>
</g>
<defs>
<clipPath id="clip0_10_821">
<rect width="18" height="18" fill="white"/>
</clipPath>
</defs>
</svg>
