<svg width="18" height="18" viewBox="0 0 18 18" fill="none" xmlns="http://www.w3.org/2000/svg">
<path d="M16.9118 6.12191C16.9064 6.12999 16.8983 6.14081 16.8929 6.14892L9.58127 15.768C9.46239 15.9248 9.29757 16.0166 9.12463 16.0437C9.076 16.0544 9.03007 16.0571 8.98144 16.0544C8.77338 16.0518 8.56532 15.9545 8.42481 15.768L1.10779 6.14622C0.883524 5.85171 0.807876 5.49235 0.870017 5.1546H17.1307C17.1901 5.48153 17.1199 5.83281 16.9118 6.12191Z" fill="#297A36"/>
<g opacity="0.4">
<path d="M5.5395 10.4474L4.20605 8.69401C4.11567 8.57527 4.13876 8.4056 4.2575 8.31536C4.37664 8.22485 4.54591 8.24807 4.63615 8.36681L5.96961 10.1202C6.05998 10.239 6.03689 10.4086 5.91815 10.4989C5.79915 10.5893 5.62965 10.566 5.5395 10.4474Z" fill="white"/>
</g>
<g opacity="0.4">
<path d="M3.53811 7.81529L3.36132 7.58282C3.27095 7.46408 3.29404 7.29441 3.41278 7.20417C3.53178 7.11366 3.70105 7.13662 3.79143 7.25562L3.96822 7.48809C4.05859 7.60683 4.0355 7.7765 3.91676 7.86674C3.79776 7.95719 3.62826 7.93384 3.53811 7.81529Z" fill="white"/>
</g>
<path d="M9.20609 15.768C9.16391 15.9248 9.10544 16.0166 9.0441 16.0437C9.02685 16.0544 9.01055 16.0571 8.9933 16.0544C8.91949 16.0518 8.84569 15.9545 8.79584 15.768C8.79584 15.768 6.09381 5.49235 6.11586 5.1546H11.8842C11.9052 5.48153 9.20609 15.768 9.20609 15.768Z" fill="#8B8B8B"/>
<path d="M11.8834 5.1546C11.905 5.48153 9.20568 15.768 9.20568 15.768C9.16516 15.9248 9.10571 16.0166 9.04356 16.0437C9.02735 16.0544 9.01114 16.0571 8.99223 16.0544C8.98952 16.0544 8.98952 16.0544 8.98682 16.0544V5.1546H11.8834Z" fill="#8B8B8B"/>
<path d="M16.9116 6.12191C16.9062 6.12999 16.8981 6.14081 16.8927 6.14892L9.58109 15.768C9.4622 15.9248 9.29739 16.0166 9.12445 16.0437C9.07582 16.0544 9.02989 16.0571 8.98126 16.0544C8.82183 16.0518 8.66241 15.995 8.53271 15.8842C8.57325 15.8491 8.60838 15.8113 8.6408 15.768L15.9524 6.14892C15.9578 6.14081 15.9659 6.12999 15.9713 6.12191C16.1794 5.83281 16.2496 5.48153 16.1902 5.1546H17.1305C17.1899 5.48153 17.1197 5.83281 16.9116 6.12191Z" fill="#8B8B8B"/>
<path d="M8.99787 1.94458L6.11211 5.15459H6.10672C6.06211 5.07158 4.5027 2.1698 4.41797 2.01213C4.55036 1.96892 4.68817 1.94458 4.82866 1.94458L8.99787 1.94458Z" fill="#297A36"/>
<path d="M13.5774 2.01213C11.2706 6.31858 12.0662 4.83328 11.8941 5.15459H11.8887L8.99756 1.94458H13.1667C13.3072 1.94458 13.445 1.96892 13.5774 2.01213Z" fill="#297A36"/>
<path d="M17.1308 5.15461H11.8916C12.0641 4.83318 11.267 6.31881 13.5776 2.01215C13.7155 2.05809 13.8452 2.13105 13.9613 2.22291L16.6714 4.3764C16.6769 4.38181 16.685 4.38722 16.6904 4.39263C16.9335 4.59257 17.0822 4.86548 17.1308 5.15461Z" fill="#8B8B8B"/>
<path d="M11.8917 5.15584H6.10938L8.99884 1.94495L11.8917 5.15584Z" fill="#8B8B8B"/>
<path d="M6.10931 5.15461H0.870117C0.918751 4.86007 1.07277 4.58446 1.32135 4.38451C1.32405 4.38181 1.32676 4.3791 1.32946 4.3764L4.03415 2.22291C4.15035 2.13105 4.28004 2.05809 4.41785 2.01215C6.73583 6.31859 5.93636 4.83329 6.10931 5.15461Z" fill="#8B8B8B"/>
<path d="M14.3325 3.47183C13.6562 3.47183 13.1087 4.02098 13.1087 4.69724H13.1071C13.1071 4.02098 12.5596 3.47183 11.8833 3.47183C12.5645 3.47183 13.1071 2.92066 13.1071 2.24811H13.1087C13.1087 2.92437 13.6562 3.47183 14.3325 3.47183Z" fill="white"/>
<path d="M11.8916 10.1952C11.2153 10.1952 10.6678 10.7444 10.6678 11.4206H10.6661C10.6661 10.7444 10.1187 10.1952 9.44238 10.1952C10.1236 10.1952 10.6661 9.64405 10.6661 8.9715H10.6678C10.6678 9.64776 11.2153 10.1952 11.8916 10.1952Z" fill="white"/>
<path d="M4.98094 4.10707C4.52254 4.10707 4.15143 4.4793 4.15143 4.9377H4.15031C4.15031 4.4793 3.77923 4.10707 3.3208 4.10707C3.55057 4.10707 3.75738 4.01402 3.90788 3.86467C4.05724 3.71416 4.15031 3.50621 4.15031 3.27759H4.15143C4.15143 3.73599 4.52254 4.10707 4.98094 4.10707Z" fill="white"/>
</svg>
