<svg width="18" height="18" viewBox="0 0 18 18" fill="none" xmlns="http://www.w3.org/2000/svg">
<path d="M11.625 9.69061L10.736 6.13742L9.93117 2.9128C9.79462 2.36718 9.27502 1.96929 8.6678 2.0366H8.66018C8.62703 2.0417 8.5914 2.0468 8.55826 2.05444C8.43821 2.0785 5.81114 2.74007 1.73464 3.75844C1.10803 3.91635 0.728519 4.55058 0.883919 5.17462C2.57681 11.9262 2.55825 11.892 2.63373 12.118C2.83555 12.6131 3.39921 12.9525 3.99645 12.8031L7.31786 11.9728L10.7768 11.1093C11.4008 10.9514 11.7829 10.3172 11.625 9.69061Z" fill="#8B8B8B"/>
<g opacity="0.4">
<path d="M2.58924 8.74567C2.4837 8.77206 2.37693 8.70802 2.35053 8.60248L1.94149 6.96712C1.91509 6.86158 1.97913 6.75481 2.08467 6.72841C2.19022 6.70202 2.29698 6.76606 2.32338 6.8716L2.73243 8.50696C2.75883 8.6125 2.69478 8.71927 2.58924 8.74567Z" fill="black"/>
</g>
<g opacity="0.4">
<path d="M1.97986 6.30845C1.87432 6.33485 1.76755 6.27081 1.74115 6.16527L1.67147 5.88668C1.64507 5.78114 1.70911 5.67437 1.81465 5.64797C1.9202 5.62157 2.02696 5.68561 2.05336 5.79116L2.12304 6.06975C2.14944 6.17529 2.0854 6.28205 1.97986 6.30845Z" fill="black"/>
</g>
<g opacity="0.4">
<path d="M4.58236 4.06136L2.62795 4.55021C2.52241 4.57661 2.41564 4.51256 2.38924 4.40702C2.36284 4.30148 2.42689 4.19471 2.53243 4.16831L4.48684 3.67946C4.59238 3.65307 4.69915 3.71711 4.72555 3.82265C4.75195 3.92819 4.6879 4.03496 4.58236 4.06136Z" fill="black"/>
</g>
<path d="M11.6248 9.69064L10.7359 6.13745L9.93103 2.91283C9.79303 2.36138 9.26906 1.96997 8.66766 2.03663H8.66004C8.71757 2.18467 8.6552 1.9923 9.69669 6.13745L10.4022 8.95961C10.5576 9.58365 10.1781 10.2179 9.55152 10.3758L7.31772 10.9336C2.49871 12.1344 2.77012 12.0807 2.62598 12.0951C2.62853 12.1027 2.63104 12.1104 2.63359 12.118C2.83738 12.618 3.4042 12.9497 3.99631 12.8057L7.31772 11.9754L10.7767 11.1093C11.4007 10.9514 11.7828 10.3172 11.6248 9.69064Z" fill="#8B8B8B"/>
<path d="M7.08896 7.22496C7.20408 7.68524 6.92487 8.15231 6.46459 8.26744C6.00431 8.38257 5.53695 8.10223 5.42182 7.64195C5.30669 7.18166 5.58731 6.71543 6.04759 6.6003C6.50788 6.48517 6.97383 6.76466 7.08896 7.22496Z" fill="black"/>
<path d="M6.81373 6.78227C6.66812 6.73551 6.50583 6.72741 6.34732 6.76706C5.88716 6.88216 5.60602 7.34812 5.72112 7.8083C5.76602 7.98779 5.86484 8.13959 5.99614 8.25081C5.72115 8.16539 5.49677 7.94152 5.42178 7.64173C5.30668 7.18155 5.58782 6.71559 6.04798 6.60049C6.32867 6.53028 6.61177 6.60758 6.81373 6.78227Z" fill="#E4E3FF"/>
<path d="M10.7768 11.1094L7.31787 11.9754V7.81342C7.31787 6.88884 8.06925 6.13745 8.99384 6.13745H10.736L11.625 9.69064C11.7829 10.3172 11.4009 10.9514 10.7768 11.1094Z" fill="#8B8B8B"/>
<path d="M16.0288 6.64831C16.0143 6.64685 15.9982 6.64685 15.9837 6.64685H8.99507C8.34968 6.64685 7.82666 7.16987 7.82666 7.8138V14.8039C7.82666 14.8621 7.83103 14.919 7.83832 14.9743C7.92136 15.5381 8.40796 15.9708 8.99507 15.9708H15.9822C16.6276 15.9708 17.1506 15.4478 17.1506 14.8024V7.8138C17.1506 7.18444 16.6524 6.67161 16.0288 6.64831Z" fill="white"/>
<path d="M16.1313 6.65686C16.1372 6.7041 16.1412 6.7533 16.1412 6.80448V13.7939C16.1412 14.4395 15.6176 14.9611 14.972 14.9611H7.98651C7.93533 14.9611 7.88612 14.9572 7.83691 14.9493C7.83691 14.9591 7.83691 14.967 7.83888 14.9749C7.92156 15.5378 8.40772 15.9708 8.9943 15.9708H15.9817C16.6273 15.9708 17.1509 15.4473 17.1509 14.8017V7.81422C17.1509 7.21979 16.7061 6.72772 16.1313 6.65686Z" fill="white"/>
<path d="M11.4494 11.3083C11.4494 11.7827 11.0652 12.1681 10.5908 12.1681C10.1163 12.1681 9.73096 11.7827 9.73096 11.3083C9.73096 10.8338 10.1163 10.4496 10.5908 10.4496C11.0652 10.4496 11.4494 10.8338 11.4494 11.3083Z" fill="black"/>
<path d="M11.4494 8.78287C11.4494 9.25733 11.0652 9.64269 10.5908 9.64269C10.1163 9.64269 9.73096 9.25733 9.73096 8.78287C9.73096 8.3084 10.1163 7.92419 10.5908 7.92419C11.0652 7.92419 11.4494 8.3084 11.4494 8.78287Z" fill="black"/>
<path d="M11.4494 13.8336C11.4494 14.3081 11.0652 14.6934 10.5908 14.6934C10.1163 14.6934 9.73096 14.3081 9.73096 13.8336C9.73096 13.3591 10.1163 12.9749 10.5908 12.9749C11.0652 12.9749 11.4494 13.3591 11.4494 13.8336Z" fill="black"/>
<path d="M15.2458 11.3083C15.2458 11.7827 14.8616 12.1681 14.3872 12.1681C13.9127 12.1681 13.5273 11.7827 13.5273 11.3083C13.5273 10.8338 13.9127 10.4496 14.3872 10.4496C14.8616 10.4496 15.2458 10.8338 15.2458 11.3083Z" fill="black"/>
<path d="M15.2458 8.78287C15.2458 9.25733 14.8616 9.64269 14.3872 9.64269C13.9127 9.64269 13.5273 9.25733 13.5273 8.78287C13.5273 8.3084 13.9127 7.92419 14.3872 7.92419C14.8616 7.92419 15.2458 8.3084 15.2458 8.78287Z" fill="black"/>
<path d="M15.2458 13.8336C15.2458 14.3081 14.8616 14.6934 14.3872 14.6934C13.9127 14.6934 13.5273 14.3081 13.5273 13.8336C13.5273 13.3591 13.9127 12.9749 14.3872 12.9749C14.8616 12.9749 15.2458 13.3591 15.2458 13.8336Z" fill="black"/>
<path d="M11.2893 10.8119C11.1595 10.7312 11.0059 10.684 10.8406 10.684C10.3662 10.684 9.98045 11.0678 9.98045 11.5422C9.98045 11.7272 10.0395 11.8984 10.1399 12.0382C9.89383 11.8886 9.73047 11.617 9.73047 11.308C9.73047 10.8336 10.1162 10.4498 10.5906 10.4498C10.8799 10.4498 11.1358 10.5935 11.2893 10.8119Z" fill="#E4E3FF"/>
<path d="M11.2893 8.2866C11.1595 8.2059 11.0059 8.15867 10.8406 8.15867C10.3662 8.15867 9.98045 8.54249 9.98045 9.01684C9.98045 9.20186 10.0395 9.3731 10.1399 9.51285C9.89383 9.36326 9.73047 9.09164 9.73047 8.78261C9.73047 8.30826 10.1162 7.92444 10.5906 7.92444C10.8799 7.92444 11.1358 8.06812 11.2893 8.2866Z" fill="#E4E3FF"/>
<path d="M11.2893 13.3373C11.1595 13.2566 11.0059 13.2093 10.8406 13.2093C10.3662 13.2093 9.98045 13.5931 9.98045 14.0695C9.98045 14.2525 10.0395 14.4238 10.1379 14.5635C9.89383 14.412 9.73047 14.1403 9.73047 13.8333C9.73047 13.3589 10.1162 12.9751 10.5906 12.9751C10.8799 12.9751 11.1358 13.1188 11.2893 13.3373Z" fill="#E4E3FF"/>
<path d="M15.0862 10.8119C14.9563 10.7312 14.8008 10.684 14.6375 10.684C14.1631 10.684 13.7773 11.0678 13.7773 11.5422C13.7773 11.7272 13.8364 11.8984 13.9367 12.0382C13.6907 11.8886 13.5273 11.617 13.5273 11.308C13.5273 10.8336 13.9131 10.4498 14.3875 10.4498C14.6768 10.4498 14.9327 10.5935 15.0862 10.8119Z" fill="#E4E3FF"/>
<path d="M15.0862 8.2866C14.9563 8.2059 14.8008 8.15867 14.6375 8.15867C14.1631 8.15867 13.7773 8.54249 13.7773 9.01684C13.7773 9.20186 13.8364 9.3731 13.9367 9.51285C13.6907 9.36326 13.5273 9.09164 13.5273 8.78261C13.5273 8.30826 13.9131 7.92444 14.3875 7.92444C14.6768 7.92444 14.9327 8.06812 15.0862 8.2866Z" fill="#E4E3FF"/>
<path d="M15.0862 13.3373C14.9563 13.2566 14.8008 13.2093 14.6375 13.2093C14.1631 13.2093 13.7773 13.5931 13.7773 14.0695C13.7773 14.2525 13.8364 14.4238 13.9348 14.5635C13.6907 14.412 13.5273 14.1423 13.5273 13.8333C13.5273 13.3589 13.9131 12.9751 14.3875 12.9751C14.6768 12.9751 14.9327 13.1188 15.0862 13.3373Z" fill="#E4E3FF"/>
</svg>
