<svg width="18" height="18" viewBox="0 0 18 18" fill="none" xmlns="http://www.w3.org/2000/svg">
<g clip-path="url(#clip0_10_1255)">
<path d="M15.8555 4.07109L14.8325 3.86012L15.4652 3.09023L12.7653 0.390234L11.9954 1.02301L11.7844 0H6.21563L6.00458 1.02301L5.2347 0.390234L2.53477 3.09023L3.55792 4.18707L2.14453 4.07109V13.9289L3.16754 14.1399L2.53477 14.9098L5.2347 17.6098L6.00458 16.977L6.21563 18H11.7844L11.9954 16.977L12.7653 17.6098L15.4652 14.9098L14.8325 14.1399L15.8555 13.9289V4.07109Z" fill="#8B8B8B"/>
<path d="M15.8555 4.07109V3.69141C15.8555 3.5543 15.8027 3.41719 15.6972 3.3223L15.4652 3.09023L12.3092 4.14548L11.71 3.54632L12.7653 0.390234L12.5332 0.158238C12.4383 0.0527344 12.3012 0 12.1641 0H11.7844L10.7329 3.16406H7.26708L6.21563 0H5.83594C5.69883 0 5.56172 0.0527344 5.46683 0.158238L5.2347 0.390234L6.29002 3.54632L5.69085 4.14548L2.53477 3.09023L2.30277 3.3223C2.1973 3.41719 2.14453 3.5543 2.14453 3.69141V4.07109L5.30859 5.12255V12.8775L2.14453 13.9289V14.3086C2.14453 14.4457 2.1973 14.5828 2.30277 14.6777L2.53477 14.9098L5.69085 13.8545L6.29002 14.4537L5.2347 17.6098L5.46683 17.8418C5.56172 17.9473 5.69883 18 5.83594 18H6.21563L7.26708 14.8359H10.7329L11.7844 18H12.1641C12.3012 18 12.4383 17.9473 12.5332 17.8418L12.7653 17.6098L11.71 14.4537L12.3092 13.8545L15.4652 14.9098L15.6972 14.6777C15.8027 14.5828 15.8555 14.4457 15.8555 14.3086V13.9289L12.6914 12.8775V5.12255L15.8555 4.07109Z" fill="#2C372D"/>
</g>
<defs>
<clipPath id="clip0_10_1255">
<rect width="18" height="18" fill="white"/>
</clipPath>
</defs>
</svg>
