<svg width="24" height="25" viewBox="0 0 24 25" fill="none" xmlns="http://www.w3.org/2000/svg">
<path fill-rule="evenodd" clip-rule="evenodd" d="M10.1277 15.5107L9.09884 14.4813L10.0878 13.4918C10.3774 13.202 10.3774 12.7222 10.0878 12.4324C9.79807 12.1426 9.3186 12.1426 9.02891 12.4324L8.03999 13.4219L7.08104 12.4624C6.79136 12.1725 6.31188 12.1725 6.0222 12.4624C5.73251 12.7522 5.73251 13.232 6.0222 13.5218L6.98115 14.4813L5.99223 15.4707C5.70255 15.7606 5.70255 16.2403 5.99223 16.5302C6.14207 16.6801 6.33186 16.75 6.52165 16.75C6.71144 16.75 6.90124 16.6801 7.05107 16.5302L8.03999 15.5407L9.06887 16.5701C9.2187 16.7201 9.4085 16.79 9.59829 16.79C9.78808 16.79 9.97788 16.7201 10.1277 16.5701C10.4174 16.2803 10.4174 15.8006 10.1277 15.5107Z" fill="#AFF697"/>
<path fill-rule="evenodd" clip-rule="evenodd" d="M13.5398 15.5C12.9898 15.5 12.5298 15.05 12.5298 14.5C12.5298 13.95 12.9698 13.5 13.5198 13.5H13.5398C14.0898 13.5 14.5398 13.95 14.5398 14.5C14.5398 15.05 14.0998 15.5 13.5398 15.5Z" fill="#AFF697"/>
<path fill-rule="evenodd" clip-rule="evenodd" d="M17.4802 15.5C16.9302 15.5 16.4702 15.05 16.4702 14.5C16.4702 13.95 16.9102 13.5 17.4602 13.5H17.4802C18.0302 13.5 18.4802 13.95 18.4802 14.5C18.4802 15.05 18.0402 15.5 17.4802 15.5Z" fill="#AFF697"/>
<path fill-rule="evenodd" clip-rule="evenodd" d="M15.5 17.47C14.95 17.47 14.5 17.03 14.5 16.48V16.46C14.5 15.91 14.95 15.46 15.5 15.46C16.05 15.46 16.5 15.91 16.5 16.46C16.5 17.01 16.06 17.47 15.5 17.47Z" fill="#AFF697"/>
<path fill-rule="evenodd" clip-rule="evenodd" d="M15.5 13.53C14.95 13.53 14.5 13.09 14.5 12.54V12.52C14.5 11.97 14.95 11.52 15.5 11.52C16.05 11.52 16.5 11.97 16.5 12.52C16.5 13.07 16.06 13.53 15.5 13.53Z" fill="#AFF697"/>
<path opacity="0.4" fill-rule="evenodd" clip-rule="evenodd" d="M22 11.57V17.15C22 20.1 19.6 22.5 16.65 22.5H7.35C4.4 22.5 2 20.1 2 17.15V11.57C2 8.61997 4.4 6.21997 7.35 6.21997H16.65C19.6 6.21997 22 8.61997 22 11.57Z" fill="#AFF697"/>
<path fill-rule="evenodd" clip-rule="evenodd" d="M13.6399 3.21L13.6299 4.15C13.6199 5.03 12.8899 5.76 11.9999 5.76C11.8499 5.76 11.7599 5.86 11.7599 5.99C11.7599 6.12 11.8599 6.22 11.9899 6.22H10.3799C10.3699 6.15 10.3599 6.07 10.3599 5.99C10.3599 5.09 11.0899 4.36 11.9799 4.36C12.1299 4.36 12.2299 4.26 12.2299 4.13L12.2399 3.19C12.2499 2.81 12.5599 2.5 12.9399 2.5H12.9499C13.3399 2.5 13.6399 2.82 13.6399 3.21Z" fill="#AFF697"/>
<path opacity="0.01" fill-rule="evenodd" clip-rule="evenodd" d="M0 0.5H24V24.5H0V0.5Z" fill="#AFF697"/>
</svg>
