<svg width="18" height="18" viewBox="0 0 18 18" fill="none" xmlns="http://www.w3.org/2000/svg">
<path d="M12.4277 2.05313C11.4152 1.4625 10.2445 1.125 9 1.125C7.75547 1.125 6.5848 1.4625 5.58281 2.05313L6.23672 5.0168L9 7.98047L11.7686 5.0168L12.4277 2.05313ZM2.14453 7.98047C2.14453 10.5117 3.52617 12.7266 5.57227 13.9078L8.22495 11.1445L9 7.98047L5.34646 6.92578L2.14453 7.98047ZM4.82038 6.77953C5.33345 7.07829 5.97076 6.89766 6.25925 6.40153C6.55752 5.88927 6.38082 5.25477 5.88125 4.96266C5.36481 4.66193 4.72096 4.84734 4.43004 5.34273C4.1406 5.84121 4.31571 6.48598 4.82038 6.77953ZM11.7397 6.39946C11.9282 6.72391 12.2753 6.92473 12.6471 6.92473C12.8325 6.92473 13.0169 6.87424 13.1776 6.78052C13.6843 6.48594 13.8594 5.84118 13.569 5.34062C13.2739 4.83877 12.6252 4.66734 12.1209 4.9616C11.615 5.25702 11.4447 5.89345 11.7397 6.39946ZM10.0547 12.1992C10.0547 11.608 9.59119 11.1445 9 11.1445C8.40881 11.1445 7.94531 11.608 7.94531 12.1992C7.94531 12.7904 8.40881 13.2539 9 13.2539C9.59119 13.2539 10.0547 12.7904 10.0547 12.1992ZM13.2188 16.9453H12.3824L9.37287 13.9358C9.16689 13.7298 8.83315 13.7298 8.62717 13.9358L5.61758 16.9453H4.78125C4.48977 16.9453 4.25391 17.1812 4.25391 17.4727C4.25391 17.7641 4.48977 18 4.78125 18H13.2188C13.5102 18 13.7461 17.7641 13.7461 17.4727C13.7461 17.1812 13.5102 16.9453 13.2188 16.9453ZM12.6522 6.92578L9 7.98047L10.08 11.6719L12.4277 13.9078C14.4738 12.7266 15.8555 10.5117 15.8555 7.98047L12.6522 6.92578Z" fill="#2C372D"/>
<path d="M12.4277 2.05313L9 7.98047H15.8555C15.8555 5.44918 14.4738 3.23438 12.4277 2.05313ZM12.9129 6.32461C12.6597 6.47227 12.3434 6.38789 12.1957 6.13477C12.0481 5.88164 12.1324 5.5652 12.3856 5.41758C12.6387 5.26992 12.9657 5.3543 13.1133 5.60742C13.2609 5.86055 13.166 6.17692 12.9129 6.32461ZM2.14453 7.98047H9L5.58281 2.05313C3.52617 3.22383 2.14453 5.44918 2.14453 7.98047ZM5.80426 6.13477C5.65664 6.38789 5.34027 6.47227 5.08707 6.32461C4.83395 6.17692 4.7391 5.86055 4.88668 5.60742C5.03434 5.3543 5.36129 5.26992 5.61442 5.41758C5.86761 5.5652 5.95195 5.88164 5.80426 6.13477ZM5.57227 13.9078C6.5848 14.4984 7.75547 14.8359 9 14.8359C10.2445 14.8359 11.4152 14.4984 12.4277 13.9078L9 7.98047L5.57227 13.9078ZM9.52734 12.1992C9.52734 12.4945 9.29535 12.7266 9 12.7266C8.70465 12.7266 8.47266 12.4945 8.47266 12.1992C8.47266 11.9039 8.70465 11.6719 9 11.6719C9.29535 11.6719 9.52734 11.9039 9.52734 12.1992ZM12.9172 9.63316C12.665 9.48755 12.3425 9.57396 12.1969 9.82617C12.0512 10.0784 12.1377 10.4009 12.3899 10.5465C12.6421 10.6921 12.9646 10.6057 13.1102 10.3535C13.2559 10.1013 13.1694 9.77878 12.9172 9.63316ZM5.80314 9.82617C5.65752 9.57396 5.335 9.48751 5.08279 9.63316C4.83057 9.77878 4.74413 10.1013 4.88978 10.3535C5.03539 10.6057 5.35792 10.6922 5.61013 10.5465C5.86234 10.4009 5.94875 10.0784 5.80314 9.82617ZM9 4.28906C9.29148 4.28906 9.52734 4.0532 9.52734 3.76172V0.527344C9.52734 0.235863 9.29148 0 9 0C8.70852 0 8.47266 0.235863 8.47266 0.527344V3.76172C8.47266 4.0532 8.70852 4.28906 9 4.28906Z" fill="#8B8B8B"/>
</svg>
