<svg width="18" height="18" viewBox="0 0 18 18" fill="none" xmlns="http://www.w3.org/2000/svg">
<path fill-rule="evenodd" clip-rule="evenodd" d="M5.73742 15.6825C5.71492 15.6825 5.68492 15.6975 5.66242 15.6975C4.20742 14.9775 3.02242 13.785 2.29492 12.33C2.29492 12.3075 2.30992 12.2775 2.30992 12.255C3.22492 12.525 4.16992 12.7275 5.10742 12.885C5.27242 13.83 5.46742 14.7675 5.73742 15.6825Z" fill="#8B8B8B"/>
<path fill-rule="evenodd" clip-rule="evenodd" d="M15.7048 12.3375C14.9623 13.83 13.7248 15.0375 12.2173 15.765C12.5023 14.8125 12.7423 13.8525 12.8998 12.885C13.8448 12.7275 14.7748 12.525 15.6898 12.255C15.6823 12.285 15.7048 12.315 15.7048 12.3375Z" fill="#8B8B8B"/>
<path fill-rule="evenodd" clip-rule="evenodd" d="M15.7648 5.78249C14.8198 5.49749 13.8673 5.26499 12.8998 5.09999C12.7423 4.13249 12.5098 3.17249 12.2173 2.23499C13.7698 2.97749 15.0223 4.22999 15.7648 5.78249Z" fill="#8B8B8B"/>
<path fill-rule="evenodd" clip-rule="evenodd" d="M5.73736 2.31754C5.46736 3.23254 5.27236 4.16254 5.11486 5.10754C4.14736 5.25754 3.18736 5.49754 2.23486 5.78254C2.96236 4.27504 4.16986 3.03754 5.66236 2.29504C5.68486 2.29504 5.71486 2.31754 5.73736 2.31754Z" fill="#8B8B8B"/>
<path fill-rule="evenodd" clip-rule="evenodd" d="M11.6173 4.9425C9.87732 4.7475 8.12232 4.7475 6.38232 4.9425C6.56982 3.915 6.80982 2.8875 7.14732 1.8975C7.16232 1.8375 7.15482 1.7925 7.16232 1.7325C7.75482 1.59 8.36232 1.5 8.99982 1.5C9.62982 1.5 10.2448 1.59 10.8298 1.7325C10.8373 1.7925 10.8373 1.8375 10.8523 1.8975C11.1898 2.895 11.4298 3.915 11.6173 4.9425Z" fill="#8B8B8B"/>
<path fill-rule="evenodd" clip-rule="evenodd" d="M4.9425 11.6176C3.9075 11.4301 2.8875 11.1901 1.8975 10.8526C1.8375 10.8376 1.7925 10.8451 1.7325 10.8376C1.59 10.2451 1.5 9.63758 1.5 9.00008C1.5 8.37008 1.59 7.75508 1.7325 7.17008C1.7925 7.16258 1.8375 7.16258 1.8975 7.14758C2.895 6.81758 3.9075 6.57008 4.9425 6.38258C4.755 8.12258 4.755 9.87758 4.9425 11.6176Z" fill="#8B8B8B"/>
<path fill-rule="evenodd" clip-rule="evenodd" d="M16.5001 9.00008C16.5001 9.63758 16.4101 10.2451 16.2676 10.8376C16.2076 10.8451 16.1626 10.8376 16.1026 10.8526C15.1051 11.1826 14.0851 11.4301 13.0576 11.6176C13.2526 9.87758 13.2526 8.12258 13.0576 6.38258C14.0851 6.57008 15.1126 6.81008 16.1026 7.14758C16.1626 7.16258 16.2076 7.17008 16.2676 7.17008C16.4101 7.76258 16.5001 8.37008 16.5001 9.00008Z" fill="#8B8B8B"/>
<path fill-rule="evenodd" clip-rule="evenodd" d="M11.6173 13.0575C11.4298 14.0925 11.1898 15.1125 10.8523 16.1025C10.8373 16.1625 10.8373 16.2075 10.8298 16.2675C10.2448 16.41 9.62982 16.5 8.99982 16.5C8.36232 16.5 7.75482 16.41 7.16232 16.2675C7.15482 16.2075 7.16232 16.1625 7.14732 16.1025C6.81732 15.105 6.56982 14.0925 6.38232 13.0575C7.25232 13.155 8.12232 13.2225 8.99982 13.2225C9.87732 13.2225 10.7548 13.155 11.6173 13.0575Z" fill="#8B8B8B"/>
<path fill-rule="evenodd" clip-rule="evenodd" d="M11.8225 11.8225C9.94667 12.0592 8.05332 12.0592 6.1775 11.8225C5.94083 9.94667 5.94083 8.05332 6.1775 6.1775C8.05333 5.94083 9.94668 5.94083 11.8225 6.1775C12.0592 8.05333 12.0592 9.94668 11.8225 11.8225Z" fill="#8B8B8B"/>
</svg>
