<svg width="18" height="18" viewBox="0 0 18 18" fill="none" xmlns="http://www.w3.org/2000/svg">
<g clip-path="url(#clip0_10_1078)">
<path d="M3.90234 11.6753V18H1.96875C1.67752 18 1.44141 17.7639 1.44141 17.4727V14.6413C1.44141 13.3272 2.2841 12.181 3.53834 11.789L3.90234 11.6753ZM12.2632 11.102L11.59 10.8917C10.9237 11.548 10.0092 11.9531 9 11.9531C7.9908 11.9531 7.07636 11.548 6.40997 10.8917L5.73683 11.102L8.61813 14.1274C8.82594 14.3456 9.17406 14.3456 9.38187 14.1274L12.2632 11.102ZM16.5586 14.6413C16.5586 13.3272 15.7159 12.181 14.4617 11.789L14.0977 11.6753V18H16.0312C16.3225 18 16.5586 17.7639 16.5586 17.4727V14.6413ZM12.4562 0H8.00508C6.03362 0 4.42969 1.60393 4.42969 3.57775C4.42969 4.30109 4.79644 5.11284 5.30859 5.625C6.60389 5.68287 7.80926 4.97869 8.38972 3.86589C9.34963 4.97728 10.7471 5.625 12.2383 5.625H12.6914C13.9333 4.92226 14.6276 3.58471 14.625 2.16165C14.6228 0.966727 13.6511 0 12.4562 0Z" fill="#8B8B8B"/>
<path d="M12.6914 5.62502V8.26174C12.6914 10.3004 11.0387 11.9531 9 11.9531C6.96129 11.9531 5.30859 10.3004 5.30859 8.26174V5.62502C6.60389 5.68289 7.80926 4.97871 8.38972 3.86591C9.34963 4.9773 10.7471 5.62502 12.2383 5.62502H12.6914ZM12.2632 11.102L9.38187 14.1274C9.17406 14.3456 8.82594 14.3456 8.61813 14.1274L5.73683 11.102L3.90234 11.6753V18H14.0977V11.6753L12.2632 11.102Z" fill="#2C372D"/>
</g>
<defs>
<clipPath id="clip0_10_1078">
<rect width="18" height="18" fill="white"/>
</clipPath>
</defs>
</svg>
