<svg width="24" height="25" viewBox="0 0 24 25" fill="none" xmlns="http://www.w3.org/2000/svg">
<g clip-path="url(#clip0_83_1056)">
<path d="M16.6406 3.26838L11.3531 3.60588L8.37188 3.00119C7.25569 2.77216 6.12094 3.48522 5.88286 4.64645L5.48906 6.60114C5.44692 6.81203 5.50317 7.02302 5.62969 7.19172C5.77036 7.34641 5.96728 7.44484 6.17817 7.44484H10.5938C10.9875 7.44484 11.2969 7.75417 11.2969 8.14797V21.8562C11.2969 22.1937 11.5359 22.475 11.8594 22.5453L13.0125 22.7703C13.1531 22.7984 13.2937 22.8125 13.4344 22.8125C14.4187 22.8125 15.3046 22.1234 15.5015 21.125L15.5297 20.9703L19.6921 7.16364L16.6406 3.26838ZM9.76978 12.6208C8.84062 11.6917 7.43944 11.5607 6.375 12.1738C5.31942 11.5638 3.91627 11.6872 2.98022 12.6208C1.88433 13.7174 1.88433 15.5013 2.98022 16.5979L5.38073 18.9984C5.64577 19.2641 6.00009 19.4104 6.375 19.4104C6.74991 19.4104 7.10423 19.2641 7.36927 18.9984L9.76978 16.5979C10.8657 15.5013 10.8657 13.7174 9.76978 12.6208ZM9.1875 19.5781C8.41158 19.5781 7.78125 20.2091 7.78125 20.9844C7.78125 21.7596 8.41158 22.3906 9.1875 22.3906C9.96342 22.3906 10.5938 21.7596 10.5938 20.9844C10.5938 20.2091 9.96342 19.5781 9.1875 19.5781ZM3.5625 10.9605C4.33842 10.9605 4.96875 10.3295 4.96875 9.55427C4.96875 8.77905 4.33842 8.14802 3.5625 8.14802C2.78658 8.14802 2.15625 8.77905 2.15625 9.55427C2.15625 10.3295 2.78658 10.9605 3.5625 10.9605Z" fill="#AFF697"/>
<path d="M22.7184 3.97151L14.9109 0.666771C13.8563 0.216771 12.6047 0.709006 12.1406 1.76369L11.3531 3.60588L16.6406 4.67463C17.8009 4.91252 18.5153 6.04662 18.2859 7.16365L15.5297 20.9703C15.7969 21.0828 16.0641 21.1391 16.3313 21.1391C17.1608 21.1391 17.9202 20.661 18.2718 19.8594L23.8292 6.74182C24.2824 5.69421 23.807 4.42511 22.7184 3.97151ZM10.5938 6.03865H2.10938C0.946219 6.03865 0 6.98487 0 8.14802V22.3906C0 23.5538 0.946219 24.5 2.10938 24.5H10.5938C11.7569 24.5 12.7031 23.5538 12.7031 22.3906V8.14802C12.7031 6.98487 11.7569 6.03865 10.5938 6.03865ZM3.5625 8.85115C3.95081 8.85115 4.26563 9.16596 4.26563 9.55427C4.26563 9.94258 3.95081 10.2574 3.5625 10.2574C3.17419 10.2574 2.85938 9.94258 2.85938 9.55427C2.85938 9.16596 3.17419 8.85115 3.5625 8.85115ZM6.375 18.7073C6.19509 18.7073 6.01519 18.6386 5.87789 18.5013L3.47738 16.1007C2.65477 15.2781 2.65477 13.9406 3.47738 13.1179C4.27252 12.3242 5.54897 12.2974 6.375 13.0369C7.2038 12.2974 8.47889 12.3242 9.27263 13.1179C10.0952 13.9406 10.0952 15.2781 9.27263 16.1007L6.87211 18.5013C6.73481 18.6386 6.55491 18.7073 6.375 18.7073ZM9.1875 21.6875C8.79919 21.6875 8.48438 21.3727 8.48438 20.9844C8.48438 20.5961 8.79919 20.2812 9.1875 20.2812C9.57581 20.2812 9.89063 20.5961 9.89063 20.9844C9.89063 21.3727 9.57581 21.6875 9.1875 21.6875Z" fill="#608357"/>
</g>
<defs>
<clipPath id="clip0_83_1056">
<rect width="24" height="24" fill="white" transform="translate(0 0.5)"/>
</clipPath>
</defs>
</svg>
