<svg width="18" height="18" viewBox="0 0 18 18" fill="none" xmlns="http://www.w3.org/2000/svg">
<path d="M9.00022 4.12781C8.79873 4.12781 8.63525 3.96446 8.63525 3.76285V2.98612C8.63525 2.78451 8.79873 2.62115 9.00022 2.62115C9.20171 2.62115 9.36518 2.78451 9.36518 2.98612V3.76285C9.36518 3.96446 9.20171 4.12781 9.00022 4.12781Z" fill="#8B8B8B"/>
<path d="M9.36621 2.98717V3.76333C9.36621 3.96526 9.20075 4.12829 9.00125 4.12829C8.82848 4.12829 8.6825 4.00905 8.646 3.84604C8.69468 3.8728 8.7482 3.88498 8.80659 3.88498C9.00852 3.88498 9.17155 3.72195 9.17155 3.52002V2.74386C9.17155 2.71467 9.16911 2.68789 9.16181 2.66113C9.28346 2.71952 9.36621 2.84361 9.36621 2.98717Z" fill="#8B8B8B"/>
<path d="M5.29464 4.85348L4.90639 4.18094C4.80565 4.00642 4.86529 3.78319 5.03993 3.68233C5.21409 3.58194 5.43768 3.64134 5.53842 3.81598L5.92667 4.48852C6.02742 4.66304 5.96778 4.88627 5.79314 4.98714C5.61741 5.08844 5.39474 5.02707 5.29464 4.85348Z" fill="#8B8B8B"/>
<path d="M5.79174 4.98717C5.63268 5.08401 5.39751 5.03491 5.29542 4.85335L4.9061 4.18182C4.85014 4.08451 4.84527 3.97501 4.87934 3.87769C4.88421 3.89715 4.89392 3.91904 4.9061 3.93851L5.29542 4.61005C5.39144 4.78437 5.61799 4.84964 5.79174 4.74386C5.86959 4.70007 5.92555 4.62951 5.95234 4.54922C6.01316 4.71223 5.94746 4.89958 5.79174 4.98717Z" fill="#8B8B8B"/>
<path d="M2.94673 7.46834L2.2743 7.07997C2.09966 6.97923 2.04002 6.756 2.14077 6.58147C2.24151 6.4066 2.46486 6.34708 2.63926 6.44794L3.31169 6.83631C3.48633 6.93705 3.54597 7.16028 3.44522 7.3348C3.34451 7.50963 3.12102 7.56917 2.94673 7.46834Z" fill="#8B8B8B"/>
<path d="M3.44623 7.3351C3.34809 7.50331 3.12986 7.57204 2.94744 7.46892L2.27347 7.07963C2.12021 6.99203 2.05452 6.80469 2.11291 6.64166C2.13967 6.72196 2.19562 6.79251 2.27347 6.83874L2.94744 7.22561C3.10564 7.32192 3.33933 7.27503 3.44623 7.09179C3.45841 7.07232 3.46571 7.05285 3.47299 7.03096C3.50706 7.12828 3.49975 7.24021 3.44623 7.3351Z" fill="#8B8B8B"/>
<path d="M14.5548 7.3348C14.4541 7.16028 14.5137 6.93705 14.6884 6.83631L15.361 6.44794C15.5352 6.34708 15.7588 6.4066 15.8595 6.58147C15.9603 6.756 15.9006 6.97923 15.726 7.07997L15.0533 7.46834C14.8791 7.56911 14.6556 7.5097 14.5548 7.3348Z" fill="#8B8B8B"/>
<path d="M15.7264 7.07963L15.0524 7.46892C14.8672 7.57361 14.6487 7.49979 14.5561 7.3351C14.5001 7.23777 14.4928 7.12828 14.5293 7.03096C14.5342 7.05285 14.5439 7.07232 14.5561 7.09179C14.6581 7.27323 14.8932 7.32252 15.0524 7.22561L15.7264 6.83874C15.8042 6.79251 15.8602 6.72196 15.887 6.64166C15.9454 6.80469 15.8821 6.99203 15.7264 7.07963Z" fill="#8B8B8B"/>
<path d="M12.2069 4.98696C12.0323 4.8861 11.9726 4.66299 12.0734 4.48835L12.4619 3.81581C12.5626 3.64128 12.786 3.58153 12.9604 3.68239C13.135 3.78325 13.1946 4.00637 13.0939 4.181L12.7054 4.85355C12.605 5.02769 12.3817 5.08809 12.2069 4.98696Z" fill="#8B8B8B"/>
<path d="M13.0936 4.18182L12.7043 4.85335C12.6018 5.03553 12.3669 5.08393 12.2079 4.98717C12.0522 4.89715 11.9865 4.71223 12.0474 4.54922C12.0741 4.62951 12.1301 4.70007 12.2079 4.74386C12.3802 4.84872 12.6069 4.78569 12.7043 4.61248L13.0936 3.93851C13.1057 3.91904 13.1155 3.89715 13.1203 3.87769C13.1568 3.97501 13.1495 4.08451 13.0936 4.18182Z" fill="#8B8B8B"/>
<path d="M5.38277 12.7371L6.0219 14.8508C6.10139 15.1136 5.90463 15.3787 5.63 15.3787H1.25882C0.984185 15.3787 0.787428 15.1136 0.866918 14.8508L1.50604 12.7371C1.55828 12.5644 1.71747 12.4462 1.89794 12.4462H4.99087C5.17135 12.4462 5.33054 12.5644 5.38277 12.7371Z" fill="#8B8B8B"/>
<g opacity="0.4">
<path d="M1.59335 14.1302C1.52896 14.1107 1.49261 14.0429 1.51209 13.9785L1.56912 13.7901C1.5886 13.7259 1.65727 13.6898 1.72071 13.7089C1.7851 13.7284 1.82146 13.7962 1.80197 13.8606L1.74495 14.049C1.72519 14.1142 1.65634 14.1495 1.59335 14.1302Z" fill="white"/>
</g>
<g opacity="0.4">
<path d="M1.79208 13.4714C1.72769 13.452 1.69134 13.3841 1.71082 13.3198L1.83842 12.8977C1.85386 12.8464 1.90115 12.8112 1.95484 12.8112H3.10462C3.17186 12.8112 3.22627 12.8656 3.22627 12.9329C3.22627 13.0001 3.17186 13.0545 3.10462 13.0545H2.04513L1.94368 13.3901C1.92382 13.4558 1.85471 13.4906 1.79208 13.4714Z" fill="white"/>
</g>
<path d="M5.62873 15.3789H1.25893C0.983991 15.3789 0.786926 15.1137 0.867207 14.8509L0.88179 14.8047H4.77959C5.05453 14.8047 5.24919 14.5395 5.17134 14.2767L4.61659 12.447H4.9913C5.17134 12.447 5.32947 12.5638 5.38299 12.7366L5.74551 13.9361L6.00831 14.8022L6.02292 14.8509C6.10076 15.1137 5.9037 15.3789 5.62873 15.3789Z" fill="#8B8B8B"/>
<path d="M11.0102 12.7371L11.6493 14.8508C11.7288 15.1136 11.5321 15.3787 11.2574 15.3787H6.88626C6.61163 15.3787 6.41487 15.1136 6.49436 14.8508L7.13348 12.7371C7.18572 12.5644 7.34491 12.4462 7.52538 12.4462H10.6183C10.7988 12.4462 10.958 12.5644 11.0102 12.7371Z" fill="#8B8B8B"/>
<g opacity="0.4">
<path d="M7.2208 14.1302C7.1564 14.1107 7.12005 14.0429 7.13953 13.9785L7.19656 13.7901C7.21604 13.7259 7.28471 13.6898 7.34815 13.7089C7.41254 13.7284 7.4489 13.7962 7.42941 13.8606L7.37239 14.049C7.35263 14.1142 7.28378 14.1495 7.2208 14.1302Z" fill="white"/>
</g>
<g opacity="0.4">
<path d="M7.41953 13.4714C7.35513 13.452 7.31878 13.3841 7.33826 13.3198L7.46586 12.8977C7.4813 12.8464 7.52859 12.8112 7.58229 12.8112H8.73206C8.7993 12.8112 8.85371 12.8656 8.85371 12.9329C8.85371 13.0001 8.7993 13.0545 8.73206 13.0545H7.67258L7.57112 13.3901C7.55126 13.4558 7.48215 13.4906 7.41953 13.4714Z" fill="white"/>
</g>
<path d="M11.2562 15.3789H6.88637C6.61143 15.3789 6.41437 15.1137 6.49465 14.8509L6.50923 14.8047H10.407C10.682 14.8047 10.8766 14.5395 10.7988 14.2767L10.244 12.447H10.6187C10.7988 12.447 10.9569 12.5638 11.0104 12.7366L11.373 13.9361L11.6357 14.8022L11.6504 14.8509C11.7282 15.1137 11.5311 15.3789 11.2562 15.3789Z" fill="#8B8B8B"/>
<path d="M16.4936 12.7371L17.1327 14.8508C17.2122 15.1136 17.0155 15.3787 16.7408 15.3787H12.3697C12.095 15.3787 11.8983 15.1136 11.9778 14.8508L12.6169 12.7371C12.6691 12.5644 12.8283 12.4462 13.0088 12.4462H16.1017C16.2822 12.4462 16.4414 12.5644 16.4936 12.7371Z" fill="#8B8B8B"/>
<g opacity="0.4">
<path d="M12.7042 14.1302C12.6398 14.1107 12.6034 14.0429 12.6229 13.9785L12.68 13.7901C12.6994 13.7259 12.7681 13.6898 12.8316 13.7089C12.8959 13.7284 12.9323 13.7962 12.9128 13.8606L12.8558 14.049C12.836 14.1142 12.7672 14.1495 12.7042 14.1302Z" fill="white"/>
</g>
<g opacity="0.4">
<path d="M12.9029 13.4714C12.8385 13.452 12.8022 13.3841 12.8217 13.3198L12.9493 12.8977C12.9647 12.8464 13.012 12.8112 13.0657 12.8112H14.2155C14.2827 12.8112 14.3371 12.8656 14.3371 12.9329C14.3371 13.0001 14.2827 13.0545 14.2155 13.0545H13.156L13.0545 13.3901C13.0347 13.4558 12.9655 13.4906 12.9029 13.4714Z" fill="white"/>
</g>
<path d="M16.7396 15.3789H12.3698C12.0948 15.3789 11.8978 15.1137 11.978 14.8509L11.9926 14.8047H15.8904C16.1654 14.8047 16.36 14.5395 16.2822 14.2767L15.7274 12.447H16.1021C16.2822 12.447 16.4403 12.5638 16.4938 12.7366L16.8564 13.9361L17.1191 14.8022L17.1338 14.8509C17.2116 15.1137 17.0145 15.3789 16.7396 15.3789Z" fill="#8B8B8B"/>
<path d="M14.0444 9.4396L14.6835 11.5532C14.763 11.8161 14.5662 12.0811 14.2916 12.0811H9.92044C9.64581 12.0811 9.44905 11.8161 9.52854 11.5532L10.1677 9.4396C10.2199 9.26685 10.3791 9.14868 10.5596 9.14868H13.6525C13.833 9.14868 13.9922 9.26685 14.0444 9.4396Z" fill="#8B8B8B"/>
<g opacity="0.4">
<path d="M10.255 10.8326C10.1906 10.8132 10.1542 10.7453 10.1737 10.6809L10.2307 10.4925C10.2502 10.4284 10.3189 10.3922 10.3823 10.4114C10.4467 10.4309 10.4831 10.4987 10.4636 10.5631L10.4066 10.7515C10.3868 10.8167 10.318 10.8519 10.255 10.8326Z" fill="white"/>
</g>
<g opacity="0.4">
<path d="M10.4537 10.1739C10.3893 10.1545 10.353 10.0865 10.3724 10.0223L10.5 9.60016C10.5155 9.54884 10.5628 9.51367 10.6165 9.51367H11.7662C11.8335 9.51367 11.8879 9.56808 11.8879 9.63533C11.8879 9.70257 11.8335 9.75698 11.7662 9.75698H10.7068L10.6053 10.0926C10.5854 10.1583 10.5163 10.193 10.4537 10.1739Z" fill="white"/>
</g>
<path d="M14.2904 12.0813H9.92055C9.64561 12.0813 9.44855 11.8161 9.52883 11.5534L9.54341 11.5071H13.4412C13.7161 11.5071 13.9108 11.2419 13.833 10.9791L13.2782 9.14948H13.6529C13.833 9.14948 13.9911 9.26626 14.0446 9.43901L14.4071 10.6385L14.6699 11.5047L14.6845 11.5534C14.7624 11.8161 14.5653 12.0813 14.2904 12.0813Z" fill="#8B8B8B"/>
<path d="M8.415 9.4396L9.05412 11.5532C9.13361 11.8161 8.93685 12.0811 8.66222 12.0811H4.29104C4.01641 12.0811 3.81965 11.8161 3.89914 11.5532L4.53827 9.4396C4.5905 9.26685 4.74969 9.14868 4.93017 9.14868H8.0231C8.20357 9.14868 8.36276 9.26685 8.415 9.4396Z" fill="#8B8B8B"/>
<g opacity="0.4">
<path d="M4.62558 10.8326C4.56119 10.8132 4.52484 10.7453 4.54432 10.6809L4.60134 10.4925C4.62083 10.4284 4.6895 10.3922 4.75294 10.4114C4.81733 10.4309 4.85368 10.4987 4.8342 10.5631L4.77717 10.7515C4.75742 10.8167 4.68857 10.8519 4.62558 10.8326Z" fill="white"/>
</g>
<g opacity="0.4">
<path d="M4.82431 10.1739C4.75992 10.1545 4.72357 10.0865 4.74305 10.0223L4.87064 9.60016C4.88609 9.54884 4.93337 9.51367 4.98707 9.51367H6.13684C6.20409 9.51367 6.2585 9.56808 6.2585 9.63533C6.2585 9.70257 6.20409 9.75698 6.13684 9.75698H5.07736L4.9759 10.0926C4.95604 10.1583 4.88693 10.193 4.82431 10.1739Z" fill="white"/>
</g>
<path d="M8.66096 12.0813H4.29116C4.01622 12.0813 3.81915 11.8161 3.89943 11.5534L3.91402 11.5071H7.81182C8.08676 11.5071 8.28141 11.2419 8.20357 10.9791L7.64882 9.14948H8.02352C8.20357 9.14948 8.3617 9.26626 8.41522 9.43901L8.77774 10.6385C8.78812 10.6727 9.07274 11.6114 9.05515 11.5534C9.13299 11.8161 8.93593 12.0813 8.66096 12.0813Z" fill="#8B8B8B"/>
<path d="M11.0102 5.99545L11.6493 8.10906C11.7288 8.37194 11.5321 8.63699 11.2574 8.63699H6.88626C6.61163 8.63699 6.41487 8.37194 6.49436 8.10906L7.13348 5.99545C7.18572 5.8227 7.34491 5.70453 7.52538 5.70453H10.6183C10.7988 5.70453 10.958 5.8227 11.0102 5.99545Z" fill="#8B8B8B"/>
<g opacity="0.4">
<path d="M7.2208 7.38849C7.1564 7.36901 7.12005 7.30117 7.13953 7.23678L7.19656 7.04836C7.21604 6.9842 7.28471 6.94809 7.34815 6.96722C7.41254 6.9867 7.4489 7.05454 7.42941 7.11893L7.37239 7.30735C7.35263 7.37251 7.28378 7.40777 7.2208 7.38849Z" fill="white"/>
</g>
<g opacity="0.4">
<path d="M7.41953 6.72971C7.35513 6.71034 7.31878 6.64239 7.33826 6.57811L7.46586 6.15601C7.4813 6.10468 7.52859 6.06952 7.58229 6.06952H8.73206C8.7993 6.06952 8.85371 6.12393 8.85371 6.19117C8.85371 6.25842 8.7993 6.31283 8.73206 6.31283H7.67258L7.57112 6.64844C7.55126 6.7141 7.48215 6.74888 7.41953 6.72971Z" fill="white"/>
</g>
<path d="M11.2562 8.63718H6.88637C6.61143 8.63718 6.41437 8.37197 6.49465 8.10921L6.50923 8.06298H10.407C10.682 8.06298 10.8766 7.79777 10.7988 7.53499L10.244 5.70532H10.6187C10.7988 5.70532 10.9569 5.82211 11.0104 5.99486L11.373 7.19437L11.6357 8.06054L11.6504 8.10921C11.7282 8.37197 11.5311 8.63718 11.2562 8.63718Z" fill="#8B8B8B"/>
</svg>
