<svg width="18" height="18" viewBox="0 0 18 18" fill="none" xmlns="http://www.w3.org/2000/svg">
<path fill-rule="evenodd" clip-rule="evenodd" d="M11.01 11.2949H6.99004C6.38254 11.2949 6.03004 10.6199 6.36754 10.1174C6.87754 9.35994 7.86754 8.84994 9.00004 8.84994C10.1325 8.84994 11.1225 9.35994 11.6325 10.1174C11.97 10.6199 11.61 11.2949 11.01 11.2949ZM8.9999 4.31249C9.9674 4.31249 10.7474 5.09249 10.7474 6.05999C10.7474 7.02749 9.9674 7.80749 8.9999 7.80749C8.0324 7.80749 7.2524 7.01999 7.2524 6.05999C7.2524 5.09249 8.0324 4.31249 8.9999 4.31249ZM13.5 1.5H4.5C3.255 1.5 2.25 2.4975 2.25 3.7275V11.91C2.25 13.14 3.255 14.1375 4.5 14.1375H5.07C5.67 14.1375 6.24 14.37 6.66 14.79L7.9425 16.0575C8.5275 16.635 9.48 16.635 10.065 16.0575L11.3475 14.79C11.7675 14.37 12.345 14.1375 12.9375 14.1375H13.5C14.745 14.1375 15.75 13.14 15.75 11.91V3.7275C15.75 2.4975 14.745 1.5 13.5 1.5Z" fill="#8B8B8B"/>
</svg>
