<svg width="18" height="18" viewBox="0 0 18 18" fill="none" xmlns="http://www.w3.org/2000/svg">
<path d="M16.418 6.01172H1.58203C0.709699 6.01172 0 6.72142 0 7.59375V15.3281C0 16.2005 0.709699 16.9102 1.58203 16.9102H16.418C17.2903 16.9102 18 16.2005 18 15.3281V7.59375C18 6.72142 17.2903 6.01172 16.418 6.01172ZM11.1094 4.25391H6.89062C6.59939 4.25391 6.36328 4.0178 6.36328 3.72656C6.36328 3.43533 6.59939 3.19922 6.89062 3.19922H11.1094C11.4006 3.19922 11.6367 3.43533 11.6367 3.72656C11.6367 4.0178 11.4006 4.25391 11.1094 4.25391Z" fill="#2C372D"/>
<path d="M1.05469 7.59375V15.3281C1.05469 15.6189 1.29125 15.8555 1.58203 15.8555H5.64845V7.06641H1.58203C1.29125 7.06641 1.05469 7.30297 1.05469 7.59375ZM2.19111 8.82422H4.51199C4.8927 8.82422 5.14793 9.21526 4.99475 9.56377L3.14026 13.7825C3.02305 14.0491 2.71192 14.1703 2.44529 14.053C2.17867 13.9358 2.05755 13.6247 2.17473 13.3581L3.70413 9.87891H2.19111C1.89988 9.87891 1.66377 9.6428 1.66377 9.35156C1.66377 9.06033 1.89988 8.82422 2.19111 8.82422ZM6.70314 15.8555H11.2969V7.06641H6.70314V15.8555ZM7.83956 8.82422H10.1604C10.5411 8.82422 10.7964 9.21526 10.6432 9.56377L8.78868 13.7825C8.67146 14.0491 8.36033 14.1703 8.09371 14.053C7.82708 13.9358 7.70597 13.6247 7.82314 13.3581L9.35255 9.87891H7.83956C7.54833 9.87891 7.31222 9.6428 7.31222 9.35156C7.31222 9.06033 7.54833 8.82422 7.83956 8.82422ZM16.418 7.06641H12.3516V15.8555H16.418C16.7087 15.8555 16.9453 15.6189 16.9453 15.3281V7.59375C16.9453 7.30297 16.7087 7.06641 16.418 7.06641ZM16.2917 9.56377L14.4371 13.7825C14.3199 14.0491 14.0088 14.1703 13.7422 14.053C13.4755 13.9358 13.3544 13.6247 13.4716 13.3581L15.001 9.87891H13.488C13.1968 9.87891 12.9607 9.6428 12.9607 9.35156C12.9607 9.06033 13.1968 8.82422 13.488 8.82422H15.8089C16.1896 8.82422 16.4449 9.21526 16.2917 9.56377ZM14.2734 3.19922H13.7461V3.02344C13.7461 1.95725 12.8787 1.08984 11.8125 1.08984H6.1875C5.12132 1.08984 4.25391 1.95725 4.25391 3.02344V3.19922H3.72656C2.46653 3.19922 1.44141 4.22434 1.44141 5.48438V6.01829C1.48778 6.01418 1.53461 6.01172 1.58203 6.01172H16.418C16.4654 6.01172 16.5122 6.01421 16.5586 6.01829V5.48438C16.5586 4.22434 15.5335 3.19922 14.2734 3.19922ZM11.1094 4.25391H6.89062C6.59939 4.25391 6.36328 4.0178 6.36328 3.72656C6.36328 3.43533 6.59939 3.19922 6.89062 3.19922H11.1094C11.4006 3.19922 11.6367 3.43533 11.6367 3.72656C11.6367 4.0178 11.4006 4.25391 11.1094 4.25391Z" fill="#8B8B8B"/>
</svg>
