<svg width="24" height="23" viewBox="0 0 24 23" fill="none" xmlns="http://www.w3.org/2000/svg">
<path d="M21.8906 7.51562H2.10938C0.946266 7.51562 0 8.46189 0 9.625V19.9375C0 21.1006 0.946266 22.0469 2.10938 22.0469H21.8906C23.0537 22.0469 24 21.1006 24 19.9375V9.625C24 8.46189 23.0537 7.51562 21.8906 7.51562ZM14.8125 5.17188H9.1875C8.79919 5.17188 8.48438 4.85706 8.48438 4.46875C8.48438 4.08044 8.79919 3.76562 9.1875 3.76562H14.8125C15.2008 3.76562 15.5156 4.08044 15.5156 4.46875C15.5156 4.85706 15.2008 5.17188 14.8125 5.17188Z" fill="#AFF697"/>
<path d="M1.40625 9.625V19.9375C1.40625 20.3252 1.72167 20.6406 2.10938 20.6406H7.53127V8.92188H2.10938C1.72167 8.92188 1.40625 9.2373 1.40625 9.625ZM2.92148 11.2656H6.01598C6.52359 11.2656 6.86391 11.787 6.65967 12.2517L4.18702 17.8767C4.03073 18.2322 3.61589 18.3937 3.26039 18.2374C2.90489 18.0811 2.74341 17.6663 2.89964 17.3108L4.93884 12.6719H2.92148C2.53317 12.6719 2.21836 12.3571 2.21836 11.9688C2.21836 11.5804 2.53317 11.2656 2.92148 11.2656ZM8.93752 20.6406H15.0625V8.92188H8.93752V20.6406ZM10.4528 11.2656H13.5472C14.0549 11.2656 14.3952 11.787 14.1909 12.2517L11.7182 17.8767C11.562 18.2322 11.1471 18.3937 10.7916 18.2374C10.4361 18.0811 10.2746 17.6663 10.4309 17.3108L12.4701 12.6719H10.4528C10.0644 12.6719 9.74963 12.3571 9.74963 11.9688C9.74963 11.5804 10.0644 11.2656 10.4528 11.2656ZM21.8906 8.92188H16.4687V20.6406H21.8906C22.2783 20.6406 22.5938 20.3252 22.5938 19.9375V9.625C22.5938 9.2373 22.2783 8.92188 21.8906 8.92188ZM21.7222 12.2517L19.2495 17.8767C19.0932 18.2322 18.6784 18.3937 18.3229 18.2374C17.9674 18.0811 17.8059 17.6663 17.9621 17.3108L20.0013 12.6719H17.984C17.5957 12.6719 17.2809 12.3571 17.2809 11.9688C17.2809 11.5804 17.5957 11.2656 17.984 11.2656H21.0785C21.5861 11.2656 21.9265 11.787 21.7222 12.2517ZM19.0312 3.76562H18.3281V3.53125C18.3281 2.10967 17.1716 0.953125 15.75 0.953125H8.25C6.82842 0.953125 5.67188 2.10967 5.67188 3.53125V3.76562H4.96875C3.2887 3.76562 1.92188 5.13245 1.92188 6.8125V7.52439C1.9837 7.51891 2.04614 7.51562 2.10938 7.51562H21.8906C21.9539 7.51562 22.0163 7.51895 22.0781 7.52439V6.8125C22.0781 5.13245 20.7113 3.76562 19.0312 3.76562ZM14.8125 5.17188H9.1875C8.79919 5.17188 8.48438 4.85706 8.48438 4.46875C8.48438 4.08044 8.79919 3.76562 9.1875 3.76562H14.8125C15.2008 3.76562 15.5156 4.08044 15.5156 4.46875C15.5156 4.85706 15.2008 5.17188 14.8125 5.17188Z" fill="#618358"/>
</svg>
