<svg width="18" height="18" viewBox="0 0 18 18" fill="none" xmlns="http://www.w3.org/2000/svg">
<path fill-rule="evenodd" clip-rule="evenodd" d="M17.0625 3C17.0625 4.13909 16.1391 5.0625 15 5.0625C13.8609 5.0625 12.9375 4.13909 12.9375 3C12.9375 1.86092 13.8609 0.9375 15 0.9375C16.1391 0.9375 17.0625 1.86092 17.0625 3Z" fill="#8B8B8B"/>
<path fill-rule="evenodd" clip-rule="evenodd" d="M12 9.00001C11.58 9.00001 11.25 8.66251 11.25 8.25001C11.25 7.83751 11.58 7.50001 12 7.50001C12.4125 7.50001 12.75 7.83751 12.75 8.25001C12.75 8.66251 12.42 9.00001 12 9.00001ZM8.99999 9.00001C8.57999 9.00001 8.24999 8.66251 8.24999 8.25001C8.24999 7.83751 8.57999 7.50001 8.99999 7.50001C9.41249 7.50001 9.74999 7.83751 9.74999 8.25001C9.74999 8.66251 9.41999 9.00001 8.99999 9.00001ZM6.00001 9.00001C5.58001 9.00001 5.25001 8.66251 5.25001 8.25001C5.25001 7.83751 5.58001 7.50001 6.00001 7.50001C6.41251 7.50001 6.75001 7.83751 6.75001 8.25001C6.75001 8.66251 6.42001 9.00001 6.00001 9.00001ZM14.28 6.1125C13.1025 5.8575 12.1425 4.8975 11.8875 3.72C11.79 3.2625 11.7825 2.82 11.865 2.4C11.9625 1.935 11.6175 1.5 11.1375 1.5H5.25C3.18 1.5 1.5 3.18 1.5 5.25V10.4625C1.5 12.5325 3.18 14.2125 5.25 14.2125H6.375C6.585 14.2125 6.855 14.3475 6.975 14.5125L8.1 16.005C8.595 16.665 9.405 16.665 9.9 16.005L11.025 14.5125C11.1675 14.325 11.385 14.2125 11.625 14.2125H12.7575C14.8275 14.2125 16.5 12.54 16.5 10.47V6.8625C16.5 6.39 16.065 6.045 15.6 6.135C15.18 6.21 14.7375 6.21 14.28 6.1125Z" fill="#8B8B8B"/>
</svg>
