<svg width="18" height="18" viewBox="0 0 18 18" fill="none" xmlns="http://www.w3.org/2000/svg">
<g clip-path="url(#clip0_10_1000)">
<path d="M17.9896 8.47261C17.8631 6.39484 16.9948 4.4964 15.6975 3.04093L14.4634 3.53667L14.9592 2.30265C13.5037 1.00542 11.6052 0.137061 9.52754 0.010498L9.0002 1.08979L8.47285 0.010498C6.4057 0.137061 4.50723 0.994838 3.05176 2.30265L3.53698 3.53667L2.30296 3.05151C0.995012 4.50698 0.137305 6.40538 0.0107422 8.47261L1.09004 8.99995L0.0107422 9.5273C0.137305 11.5944 0.995012 13.4929 2.30293 14.9484L3.53695 14.4632L3.05176 15.6972C4.50723 17.005 6.40573 17.8628 8.47285 17.9894L9.0002 16.9453L9.52754 17.9894C11.5947 17.8628 13.4932 17.005 14.9486 15.6972L14.4634 14.4632L15.6974 14.9484C17.0053 13.4929 17.8631 11.5944 17.9896 9.5273L16.9455 8.99995L17.9896 8.47261Z" fill="#8B8B8B"/>
<path d="M17.9895 9.52734C18 9.34798 18 9.1793 18 9C18 8.82063 18 8.65195 17.9895 8.47266H14.7691C14.6637 7.27031 14.189 6.17344 13.4507 5.28747L15.6972 3.04098C15.4652 2.77731 15.2227 2.53477 14.959 2.3027L12.7125 4.54918C11.8265 3.8109 10.7297 3.33633 9.52731 3.23082V0.0105469C9.34812 0 9.17923 0 9 0C8.82077 0 8.65188 0 8.47266 0.0105469V3.23082C7.27031 3.33633 6.17351 3.8109 5.28747 4.53864L3.05153 2.3027C2.78789 2.53477 2.53477 2.78789 2.30277 3.05156L4.53871 5.2875C3.81101 6.17344 3.33633 7.27031 3.23089 8.47266H0.0105469C0 8.65195 0 8.82063 0 9C0 9.1793 0 9.34798 0.0105469 9.52734H3.23089C3.33633 10.7297 3.81101 11.8266 4.53871 12.7125L2.30277 14.9485C2.53477 15.2121 2.78789 15.4652 3.05156 15.6972L5.2875 13.4613C6.17354 14.189 7.27031 14.6636 8.47269 14.7691V17.9895C8.65192 18 8.82081 18 9.00004 18C9.17926 18 9.34815 18 9.52738 17.9895V14.7691C10.7297 14.6636 11.8265 14.189 12.7126 13.4613L14.9485 15.6972C15.2122 15.4652 15.4653 15.2121 15.6973 14.9484L13.4614 12.7124C14.189 11.8265 14.6637 10.7297 14.7692 9.52731H17.9895V9.52734ZM10.0547 10.0547C9.85437 10.0547 9.68558 10.0125 9.52734 9.94918V10.582H10.0425C10.0581 10.8684 10.295 11.0999 10.5818 11.0927C10.5907 11.3959 10.3556 11.6367 10.0547 11.6367H7.95744C7.94197 11.3502 7.70502 11.1187 7.41821 11.1258C7.40939 10.8227 7.64452 10.582 7.94531 10.582H8.47266V9.94918C8.31442 10.0125 8.14563 10.0547 7.94531 10.0547C7.05927 10.0547 6.36328 9.29528 6.36328 8.325C6.36328 7.33359 7.09095 6.42656 8.7152 5.39293C8.89453 5.27695 9.10543 5.27695 9.28477 5.39293C10.9091 6.42656 11.6367 7.33359 11.6367 8.325C11.6367 9.29528 10.9407 10.0547 10.0547 10.0547Z" fill="#2C372D"/>
</g>
<defs>
<clipPath id="clip0_10_1000">
<rect width="18" height="18" fill="white"/>
</clipPath>
</defs>
</svg>
