<svg width="32" height="32" viewBox="0 0 32 32" fill="none" xmlns="http://www.w3.org/2000/svg">
<g clip-path="url(#clip0_636_9013)">
<path d="M31.3349 28.2284H0.665062C0.29775 28.2284 0 27.9306 0 27.5633V13.1883H32V27.5633C32 27.9306 31.7023 28.2284 31.3349 28.2284Z" fill="#FFAF40"/>
<path d="M1.31081 16.9156C0.586875 16.9156 0 17.5025 0 18.2264V25.5351C0 26.2591 0.586875 26.8459 1.31081 26.8459C2.03475 26.8459 2.62163 26.2591 2.62163 25.5351V18.2264C2.62163 17.5025 2.03475 16.9156 1.31081 16.9156Z" fill="#FFC751"/>
<path d="M2.62163 21.3898V20.0585C2.62163 19.3346 2.03475 18.7477 1.31081 18.7477C0.586875 18.7477 0 19.3346 0 20.0585V21.3898C0 22.1137 0.586875 22.7006 1.31081 22.7006C2.03475 22.7006 2.62163 22.1137 2.62163 21.3898Z" fill="#FFE059"/>
<path d="M0 13.1883H32V15.8142H0V13.1883Z" fill="#FF993A"/>
<path d="M32.0002 14.59V27.5629C32.0002 27.9301 31.7023 28.228 31.3352 28.228H16.8057C23.5839 28.228 28.591 20.405 30.5757 14.59H32.0002Z" fill="#FF993A"/>
<path d="M32.0002 20.6281V27.5634C32.0002 27.9305 31.7023 28.2285 31.3352 28.2285H24.0029C27.837 28.2284 30.7174 24.0126 32.0002 20.6281Z" fill="#F97C15"/>
<path d="M27.146 3.77188H4.854C4.854 3.77188 0 3.84819 0 10.6934V14.59H32V10.6934C32 3.84826 27.146 3.77188 27.146 3.77188Z" fill="#FFC751"/>
<path d="M24.0534 3.77188H7.9458C7.9458 3.77188 3.0918 3.84819 3.0918 10.6934V11.5013C3.0918 11.8686 3.38955 12.1663 3.75686 12.1663H28.2424C28.6097 12.1663 28.9075 11.8686 28.9075 11.5013V10.6934C28.9074 3.84826 24.0534 3.77188 24.0534 3.77188Z" fill="#B55434"/>
<path d="M28.9083 10.6935V11.5015C28.9083 11.8687 28.6104 12.1666 28.2433 12.1666H19.6348C22.6009 11.3965 24.791 8.70165 24.791 5.49409C24.791 4.92415 24.7218 4.37084 24.5915 3.8414C25.855 4.0934 28.9083 5.26459 28.9083 10.6935Z" fill="#A1412B"/>
<path d="M27.5592 5.73146H4.44043C4.77162 5.28652 5.13674 4.94271 5.50255 4.67734H26.4971C26.8629 4.94271 27.228 5.28659 27.5592 5.73146Z" fill="#A1412B"/>
<path d="M28.6582 8.23848H3.34082C3.42726 7.85473 3.53301 7.50492 3.6547 7.18436H28.3443C28.466 7.50498 28.5718 7.85479 28.6582 8.23848Z" fill="#A1412B"/>
<path d="M28.908 10.6932V10.7464H3.0918V10.6932C3.0918 10.3421 3.10442 10.0089 3.12905 9.69296H28.8707C28.8954 10.0088 28.908 10.342 28.908 10.6932Z" fill="#A1412B"/>
<path d="M9.60561 28.2278H3.0918V17.2432C3.0918 16.8759 3.38955 16.5781 3.75686 16.5781H8.94061C9.30792 16.5781 9.60567 16.8759 9.60567 17.2432V28.2278H9.60561Z" fill="#B55434"/>
<path d="M19.2568 17.2432V28.228H12.7432V17.2432C12.7432 16.8761 13.0404 16.5782 13.4082 16.5782H18.5917C18.9595 16.5782 19.2568 16.8761 19.2568 17.2432Z" fill="#B55434"/>
<path d="M19.2567 17.2432V19.2324C18.998 19.7512 18.4613 20.1076 17.8415 20.1076C17.6912 20.1076 17.5455 20.0864 17.4079 20.0471C17.3274 20.8452 16.6537 21.4684 15.8344 21.4684C15.015 21.4684 14.3413 20.8452 14.2602 20.0471C14.1225 20.0864 13.9775 20.1076 13.8272 20.1076C13.4076 20.1076 13.0259 19.9447 12.7432 19.6767V17.2432C12.7432 16.8761 13.0404 16.5782 13.4082 16.5782H18.5917C18.9594 16.5782 19.2567 16.8761 19.2567 17.2432Z" fill="#A1412B"/>
<path d="M19.2471 17.2432V28.228H13.9639C16.3076 26.1304 17.7826 23.0824 17.7826 19.69C17.7826 18.6112 17.6336 17.5678 17.355 16.5782H18.582C18.9491 16.5782 19.2471 16.8761 19.2471 17.2432Z" fill="#A1412B"/>
<path d="M28.9074 28.2278H22.3936V17.2432C22.3936 16.8759 22.6913 16.5781 23.0586 16.5781H28.2424C28.6097 16.5781 28.9074 16.8759 28.9074 17.2432V28.2278H28.9074Z" fill="#B55434"/>
<path d="M17.9357 15.8366V13.7571C18.7654 13.7084 19.4234 13.0202 19.4234 12.1782C19.4234 11.3046 18.7151 10.5964 17.8415 10.5964C17.6911 10.5964 17.5459 10.6178 17.4081 10.657C17.3275 9.85887 16.6536 9.23593 15.8342 9.23593C15.0149 9.23593 14.341 9.85887 14.2604 10.657C14.1226 10.6178 13.9774 10.5964 13.827 10.5964C12.9534 10.5964 12.2451 11.3046 12.2451 12.1782C12.2451 13.0202 12.9031 13.7083 13.7328 13.7571V15.8366C12.9031 15.8854 12.2451 16.5735 12.2451 17.4155C12.2451 18.2891 12.9534 18.9974 13.827 18.9974C13.9774 18.9974 14.1226 18.9759 14.2604 18.9367C14.341 19.7349 15.0149 20.3578 15.8342 20.3578C16.6536 20.3578 17.3275 19.7348 17.4081 18.9367C17.5459 18.9759 17.6911 18.9974 17.8415 18.9974C18.7151 18.9974 19.4234 18.2891 19.4234 17.4155C19.4234 16.5735 18.7655 15.8854 17.9357 15.8366Z" fill="#FFF7C7"/>
<path d="M19.4241 17.4155C19.4241 18.2894 18.7158 18.9977 17.8419 18.9977C17.6916 18.9977 17.546 18.9757 17.4083 18.9365C17.3278 19.7346 16.6541 20.3577 15.8348 20.3577C15.0155 20.3577 14.3417 19.7346 14.2606 18.9365C14.1229 18.9757 13.978 18.9977 13.8277 18.9977C13.3807 18.9977 12.9771 18.8121 12.6904 18.5142C15.2256 17.893 17.1057 15.6059 17.1057 12.8792C17.1057 11.4999 16.6242 10.2322 15.8196 9.23668C15.8249 9.23599 15.8296 9.23599 15.8349 9.23599C16.6542 9.23599 17.3279 9.85918 17.4084 10.6572C17.5461 10.618 17.6917 10.5967 17.842 10.5967C18.7159 10.5967 19.4242 11.3051 19.4242 12.1782C19.4242 13.0202 18.7657 13.7086 17.9364 13.7571V15.8367C18.7657 15.8852 19.4241 16.5736 19.4241 17.4155Z" fill="#FFF370"/>
<path d="M15.8348 16.3234C15.4088 16.3234 15.0635 15.9781 15.0635 15.5521V14.0416C15.0635 13.6156 15.4088 13.2703 15.8348 13.2703C16.2608 13.2703 16.6061 13.6156 16.6061 14.0416V15.5521C16.6061 15.9781 16.2608 16.3234 15.8348 16.3234Z" fill="#7F392C"/>
<path d="M19.4238 17.4155C19.4238 18.2894 18.7155 18.9977 17.8416 18.9977C17.6913 18.9977 17.5457 18.9758 17.408 18.9365C17.3275 19.7346 16.6538 20.3578 15.8345 20.3578C15.2825 20.3578 14.7964 20.0751 14.5137 19.6461C16.463 19.3708 18.0105 17.8458 18.3191 15.9072C18.9596 16.1093 19.4238 16.7086 19.4238 17.4155Z" fill="#FFE059"/>
<path d="M9.60643 17.2432V28.228H4.32324C6.66693 26.1304 8.14199 23.0824 8.14199 19.69C8.14199 18.6112 7.99299 17.5678 7.71437 16.5782H8.94137C9.30849 16.5782 9.60643 16.8761 9.60643 17.2432Z" fill="#A1412B"/>
<path d="M28.9082 17.2432V28.228H23.625C25.9687 26.1304 27.4438 23.0824 27.4438 19.69C27.4438 18.6112 27.2948 17.5678 27.0161 16.5782H28.2431C28.6103 16.5782 28.9082 16.8761 28.9082 17.2432Z" fill="#A1412B"/>
<path d="M9.60605 17.2432V18.7975C9.60605 18.4304 9.30811 18.1324 8.94099 18.1324H3.75686C3.38973 18.1324 3.0918 18.4304 3.0918 18.7975V17.2432C3.0918 16.8761 3.38973 16.5782 3.75686 16.5782H8.94099C9.30811 16.5782 9.60605 16.8761 9.60605 17.2432Z" fill="#A1412B"/>
<path d="M28.9078 17.2432V18.7975C28.9078 18.4304 28.6099 18.1324 28.2427 18.1324H23.0586C22.6915 18.1324 22.3936 18.4304 22.3936 18.7975V17.2432C22.3936 16.8761 22.6915 16.5782 23.0586 16.5782H28.2427C28.6098 16.5782 28.9078 16.8761 28.9078 17.2432Z" fill="#A1412B"/>
<path d="M24.7864 5.73146C24.7897 5.65234 24.791 5.57315 24.791 5.49334C24.791 5.21734 24.7751 4.94465 24.7432 4.67734H26.4982C26.8634 4.94334 27.2285 5.28652 27.559 5.73146H24.7864Z" fill="#7F392C"/>
<path d="M28.6583 8.23848H24.2217C24.3693 7.90061 24.4897 7.54817 24.5815 7.18436H28.3444C28.4661 7.50498 28.5719 7.85479 28.6583 8.23848Z" fill="#7F392C"/>
<path d="M28.9082 10.6932V10.7464H22.3613C22.7318 10.4318 23.0683 10.0787 23.3642 9.69296H28.8709C28.8955 10.0088 28.9082 10.342 28.9082 10.6932Z" fill="#7F392C"/>
<path d="M9.59006 12.1662H3.75694C3.38963 12.1662 3.09188 11.8684 3.09188 11.5011V10.6931C3.09188 10.4001 3.10081 10.1197 3.11794 9.85113C3.17463 8.96094 2.47181 8.20688 1.57981 8.20688C0.7775 8.20688 0.109375 8.82182 0.0429375 9.62138C0.014875 9.95869 0 10.3156 0 10.6932V12.3276C0 13.577 1.01281 14.5898 2.26213 14.5898H9.56094C10.218 14.5898 10.7776 14.0788 10.8009 13.4222C10.8255 12.7328 10.2739 12.1662 9.59006 12.1662Z" fill="#FFE059"/>
<path d="M7.39784 12.1664H4.96859C4.29934 12.1664 3.75684 12.7089 3.75684 13.3782C3.75684 14.0474 4.29934 14.5899 4.96859 14.5899H7.39777C8.06702 14.5899 8.60952 14.0474 8.60952 13.3782C8.60959 12.7089 8.06702 12.1664 7.39784 12.1664Z" fill="#FFF370"/>
<path d="M27.9526 12.1664H21.533C20.8638 12.1664 20.3213 12.7089 20.3213 13.3782C20.3213 14.0474 20.8638 14.5899 21.533 14.5899H27.9526C28.6219 14.5899 29.1644 14.0474 29.1644 13.3782C29.1644 12.7089 28.6218 12.1664 27.9526 12.1664Z" fill="#FFE059"/>
<path d="M26.3745 12.1664H25.0379C24.3687 12.1664 23.8262 12.7089 23.8262 13.3782C23.8262 14.0474 24.3687 14.5899 25.0379 14.5899H26.3745C27.0437 14.5899 27.5862 14.0474 27.5862 13.3782C27.5862 12.7089 27.0437 12.1664 26.3745 12.1664Z" fill="#FFF370"/>
</g>
<defs>
<clipPath id="clip0_636_9013">
<rect width="32" height="32" fill="white"/>
</clipPath>
</defs>
</svg>
